<?xml version="1.0" encoding="UTF-8"?>
<svg id="Layer_1" data-name="Layer 1" xmlns="http://www.w3.org/2000/svg" xmlns:xlink="http://www.w3.org/1999/xlink" viewBox="0 0 739.79 423.54">
  <defs>
    <style>
      .cls-1 {
        letter-spacing: 0em;
      }

      .cls-2 {
        letter-spacing: -.01em;
      }

      .cls-3 {
        clip-path: url(#clippath);
      }

      .cls-4 {
        fill: none;
      }

      .cls-4, .cls-5, .cls-6, .cls-7, .cls-8, .cls-9, .cls-10, .cls-11, .cls-12, .cls-13, .cls-14, .cls-15, .cls-16, .cls-17, .cls-18, .cls-19, .cls-20, .cls-21, .cls-22, .cls-23, .cls-24, .cls-25, .cls-26, .cls-27, .cls-28, .cls-29, .cls-30, .cls-31, .cls-32, .cls-33, .cls-34, .cls-35, .cls-36, .cls-37, .cls-38 {
        stroke-width: 0px;
      }

      .cls-39 {
        letter-spacing: -.03em;
      }

      .cls-40 {
        letter-spacing: .01em;
      }

      .cls-41 {
        fill: #231f20;
        font-family: Noteworthy-Bold, Noteworthy;
        font-size: 40px;
        font-weight: 700;
      }

      .cls-42 {
        clip-path: url(#clippath-1);
      }

      .cls-43 {
        letter-spacing: .03em;
      }

      .cls-44 {
        isolation: isolate;
      }

      .cls-5 {
        fill: #262f60;
      }

      .cls-6 {
        fill: #262e5f;
      }

      .cls-7 {
        fill: #354179;
      }

      .cls-8 {
        fill: #293365;
      }

      .cls-9 {
        fill: #2d376b;
      }

      .cls-10 {
        fill: #2b3569;
      }

      .cls-11 {
        fill: #2b3568;
      }

      .cls-12 {
        fill: #2a3466;
      }

      .cls-13 {
        fill: #283263;
      }

      .cls-14 {
        fill: #283163;
      }

      .cls-15 {
        fill: #969252;
      }

      .cls-16 {
        fill: #3a4884;
      }

      .cls-17 {
        fill: #38447e;
      }

      .cls-18 {
        fill: #3b4884;
      }

      .cls-19 {
        fill: #273061;
      }

      .cls-20 {
        fill: #394681;
      }

      .cls-21 {
        fill: #2f396e;
      }

      .cls-22 {
        fill: #3c4a87;
      }

      .cls-23 {
        fill: #3d4b88;
      }

      .cls-24 {
        fill: #3d4c89;
      }

      .cls-25 {
        fill: #36437c;
      }

      .cls-26 {
        fill: #232c5b;
      }

      .cls-27 {
        fill: #222a59;
      }

      .cls-28 {
        fill: #232b5b;
      }

      .cls-29 {
        fill: #252e5e;
      }

      .cls-30 {
        fill: #242c5c;
      }

      .cls-31 {
        fill: #a6a25b;
      }

      .cls-32 {
        fill: #afaa60;
      }

      .cls-33 {
        fill: #9d9956;
      }

      .cls-34 {
        fill: #303b71;
      }

      .cls-35 {
        fill: #323d74;
      }

      .cls-36 {
        fill: #333f76;
      }

      .cls-37 {
        fill: #e7de7d;
      }

      .cls-38 {
        fill: #efe580;
      }
    </style>
    <clipPath id="clippath">
      <path class="cls-4" d="m63.18,140.35L-21.4,91.2c-.08-27.01,18.92-59.92,42.43-73.49l84.58,49.15c-23.51,13.57-42.5,46.48-42.43,73.49Z"/>
    </clipPath>
    <clipPath id="clippath-1">
      <path class="cls-4" d="m153.51,188.25l56.38-32.77c19.59,11.31,35.42,38.73,35.36,61.24l-56.38,32.77c.06-22.52-15.77-49.93-35.36-61.24Z"/>
    </clipPath>
  </defs>
  <g class="cls-44">
    <polygon class="cls-11" points="142.76 360.53 58.18 311.38 72.37 303.19 156.95 352.34 142.76 360.53"/>
    <polygon class="cls-6" points="156.95 352.34 72.37 303.19 72.33 286.88 156.9 336.03 156.95 352.34"/>
    <polygon class="cls-33" points="142.76 360.53 58.18 311.38 58.14 295.07 142.71 344.22 142.76 360.53"/>
    <polygon class="cls-32" points="142.71 344.22 58.14 295.07 72.33 286.88 156.9 336.03 142.71 344.22"/>
    <polygon class="cls-38" points="156.9 336.03 156.95 352.34 142.76 360.53 142.71 344.22 156.9 336.03"/>
    <polygon class="cls-11" points="142.68 332.7 58.11 283.55 72.29 275.36 156.87 324.51 142.68 332.7"/>
    <polygon class="cls-6" points="156.87 324.51 72.29 275.36 72.25 259.06 156.82 308.21 156.87 324.51"/>
    <polygon class="cls-11" points="112.87 377.79 28.29 328.64 42.48 320.44 127.06 369.59 112.87 377.79"/>
    <polygon class="cls-6" points="127.06 369.59 42.48 320.44 42.44 304.13 127.01 353.28 127.06 369.59"/>
    <polygon class="cls-38" points="156.82 308.21 156.87 324.51 142.68 332.7 142.64 316.4 156.82 308.21"/>
    <polygon class="cls-33" points="142.68 332.7 58.11 283.55 58.06 267.25 142.64 316.4 142.68 332.7"/>
    <polygon class="cls-32" points="142.64 316.4 58.06 267.25 72.25 259.06 156.82 308.21 142.64 316.4"/>
    <polygon class="cls-33" points="112.87 377.79 28.29 328.64 28.25 312.33 112.82 361.48 112.87 377.79"/>
    <polygon class="cls-38" points="127.01 353.28 127.06 369.59 112.87 377.79 112.82 361.48 127.01 353.28"/>
    <polygon class="cls-32" points="112.82 361.48 28.25 312.33 42.44 304.13 127.01 353.28 112.82 361.48"/>
    <polygon class="cls-11" points="142.6 304.88 58.03 255.73 72.21 247.54 156.79 296.69 142.6 304.88"/>
    <polygon class="cls-6" points="156.79 296.69 72.21 247.54 72.17 231.24 156.74 280.39 156.79 296.69"/>
    <polygon class="cls-11" points="112.79 349.96 28.21 300.81 42.41 292.62 126.98 341.77 112.79 349.96"/>
    <polygon class="cls-6" points="126.98 341.77 42.41 292.62 42.36 276.31 126.94 325.46 126.98 341.77"/>
    <polygon class="cls-11" points="84.01 394.44 -.56 345.29 13.63 337.1 98.2 386.25 84.01 394.44"/>
    <polygon class="cls-6" points="98.2 386.25 13.63 337.1 13.58 320.79 98.16 369.94 98.2 386.25"/>
    <polygon class="cls-32" points="142.56 288.58 57.98 239.43 72.17 231.24 156.74 280.39 142.56 288.58"/>
    <polygon class="cls-38" points="156.74 280.39 156.79 296.69 142.6 304.88 142.56 288.58 156.74 280.39"/>
    <polygon class="cls-33" points="142.6 304.88 58.03 255.73 57.98 239.43 142.56 288.58 142.6 304.88"/>
    <polygon class="cls-32" points="112.74 333.66 28.17 284.51 42.36 276.31 126.94 325.46 112.74 333.66"/>
    <polygon class="cls-33" points="112.79 349.96 28.21 300.81 28.17 284.51 112.74 333.66 112.79 349.96"/>
    <polygon class="cls-38" points="126.94 325.46 126.98 341.77 112.79 349.96 112.74 333.66 126.94 325.46"/>
    <polygon class="cls-32" points="83.97 378.14 -.61 328.99 13.58 320.79 98.16 369.94 83.97 378.14"/>
    <polygon class="cls-38" points="98.16 369.94 98.2 386.25 84.01 394.44 83.97 378.14 98.16 369.94"/>
    <polygon class="cls-33" points="84.01 394.44 -.56 345.29 -.61 328.99 83.97 378.14 84.01 394.44"/>
    <polygon class="cls-11" points="142.52 277.06 57.95 227.91 72.13 219.72 156.71 268.87 142.52 277.06"/>
    <polygon class="cls-6" points="156.71 268.87 72.13 219.72 72.09 203.41 156.66 252.56 156.71 268.87"/>
    <polygon class="cls-11" points="112.71 322.14 28.13 272.99 42.33 264.8 126.9 313.95 112.71 322.14"/>
    <polygon class="cls-6" points="126.9 313.95 42.33 264.8 42.28 248.49 126.86 297.64 126.9 313.95"/>
    <polygon class="cls-11" points="83.94 366.62 -.64 317.47 13.55 309.28 98.12 358.43 83.94 366.62"/>
    <polygon class="cls-6" points="98.12 358.43 13.55 309.28 13.5 292.98 98.08 342.13 98.12 358.43"/>
    <polygon class="cls-32" points="142.48 260.75 57.9 211.6 72.09 203.41 156.66 252.56 142.48 260.75"/>
    <polygon class="cls-33" points="142.52 277.06 57.95 227.91 57.9 211.6 142.48 260.75 142.52 277.06"/>
    <polygon class="cls-38" points="156.66 252.56 156.71 268.87 142.52 277.06 142.48 260.75 156.66 252.56"/>
    <polygon class="cls-38" points="126.86 297.64 126.9 313.95 112.71 322.14 112.66 305.84 126.86 297.64"/>
    <polygon class="cls-32" points="112.66 305.84 28.09 256.69 42.28 248.49 126.86 297.64 112.66 305.84"/>
    <polygon class="cls-33" points="112.71 322.14 28.13 272.99 28.09 256.69 112.66 305.84 112.71 322.14"/>
    <polygon class="cls-38" points="98.08 342.12 98.12 358.43 83.94 366.62 83.89 350.32 98.08 342.12"/>
    <polygon class="cls-33" points="83.94 366.62 -.64 317.47 -.69 301.17 83.89 350.32 83.94 366.62"/>
    <polygon class="cls-32" points="83.89 350.32 -.69 301.17 13.5 292.98 98.08 342.12 83.89 350.32"/>
    <polygon class="cls-11" points="142.44 249.23 57.87 200.08 72.06 191.89 156.63 241.04 142.44 249.23"/>
    <polygon class="cls-6" points="156.63 241.04 72.06 191.89 72.01 175.59 156.59 224.74 156.63 241.04"/>
    <polygon class="cls-11" points="112.63 294.32 28.05 245.17 42.25 236.98 126.82 286.13 112.63 294.32"/>
    <polygon class="cls-6" points="126.82 286.13 42.25 236.98 42.2 220.67 126.78 269.82 126.82 286.13"/>
    <polygon class="cls-11" points="83.86 338.8 -.72 289.65 13.47 281.46 98.04 330.61 83.86 338.8"/>
    <polygon class="cls-6" points="98.04 330.61 13.47 281.46 13.42 265.16 98 314.31 98.04 330.61"/>
    <polygon class="cls-32" points="142.4 232.93 57.82 183.78 72.01 175.59 156.59 224.74 142.4 232.93"/>
    <polygon class="cls-38" points="156.59 224.74 156.63 241.04 142.44 249.23 142.4 232.93 156.59 224.74"/>
    <polygon class="cls-33" points="142.44 249.23 57.87 200.08 57.82 183.78 142.4 232.93 142.44 249.23"/>
    <polygon class="cls-33" points="112.63 294.32 28.06 245.17 28.01 228.86 112.58 278.01 112.63 294.32"/>
    <polygon class="cls-38" points="126.78 269.82 126.82 286.13 112.63 294.32 112.58 278.01 126.78 269.82"/>
    <polygon class="cls-32" points="112.58 278.01 28.01 228.86 42.2 220.67 126.78 269.82 112.58 278.01"/>
    <polygon class="cls-38" points="98 314.31 98.04 330.61 83.86 338.8 83.81 322.5 98 314.31"/>
    <polygon class="cls-32" points="83.81 322.5 -.76 273.35 13.42 265.16 98 314.31 83.81 322.5"/>
    <polygon class="cls-33" points="83.86 338.8 -.72 289.65 -.76 273.35 83.81 322.5 83.86 338.8"/>
    <polygon class="cls-11" points="142.37 221.41 57.79 172.26 71.98 164.07 156.55 213.22 142.37 221.41"/>
    <polygon class="cls-6" points="156.55 213.22 71.98 164.07 71.93 147.77 156.51 196.92 156.55 213.22"/>
    <polygon class="cls-11" points="112.55 266.49 27.98 217.34 42.17 209.15 126.74 258.3 112.55 266.49"/>
    <polygon class="cls-6" points="126.74 258.3 42.17 209.15 42.12 192.85 126.7 242 126.74 258.3"/>
    <polygon class="cls-11" points="83.78 310.98 -.8 261.83 13.39 253.64 97.96 302.79 83.78 310.98"/>
    <polygon class="cls-6" points="97.96 302.79 13.39 253.64 13.34 237.33 97.92 286.48 97.96 302.79"/>
    <polygon class="cls-38" points="156.51 196.92 156.55 213.22 142.37 221.41 142.32 205.11 156.51 196.92"/>
    <polygon class="cls-33" points="142.37 221.41 57.79 172.26 57.74 155.96 142.32 205.11 142.37 221.41"/>
    <polygon class="cls-32" points="142.32 205.11 57.74 155.96 71.93 147.77 156.51 196.92 142.32 205.11"/>
    <polygon class="cls-38" points="126.7 242 126.74 258.3 112.55 266.49 112.51 250.19 126.7 242"/>
    <polygon class="cls-32" points="112.51 250.19 27.93 201.04 42.12 192.85 126.7 242 112.51 250.19"/>
    <polygon class="cls-33" points="112.55 266.49 27.98 217.34 27.93 201.04 112.51 250.19 112.55 266.49"/>
    <polygon class="cls-33" points="83.78 310.98 -.8 261.83 -.84 245.52 83.73 294.67 83.78 310.98"/>
    <polygon class="cls-32" points="83.73 294.67 -.84 245.52 13.34 237.33 97.92 286.48 83.73 294.67"/>
    <polygon class="cls-38" points="97.92 286.48 97.97 302.79 83.78 310.98 83.73 294.67 97.92 286.48"/>
    <polygon class="cls-11" points="142.29 193.59 57.71 144.44 71.9 136.25 156.47 185.4 142.29 193.59"/>
    <polygon class="cls-6" points="156.47 185.4 71.9 136.25 71.85 119.94 156.43 169.09 156.47 185.4"/>
    <polygon class="cls-11" points="112.47 238.67 27.9 189.52 42.09 181.33 126.67 230.48 112.47 238.67"/>
    <polygon class="cls-6" points="126.67 230.48 42.09 181.33 42.04 165.03 126.62 214.18 126.67 230.48"/>
    <polygon class="cls-11" points="83.7 283.15 -.88 234 13.31 225.81 97.89 274.96 83.7 283.15"/>
    <polygon class="cls-6" points="97.89 274.96 13.31 225.81 13.26 209.51 97.84 258.66 97.89 274.96"/>
    <polygon class="cls-32" points="142.24 177.29 57.67 128.14 71.85 119.94 156.43 169.09 142.24 177.29"/>
    <polygon class="cls-38" points="156.43 169.09 156.47 185.4 142.29 193.59 142.24 177.29 156.43 169.09"/>
    <polygon class="cls-33" points="142.29 193.59 57.71 144.44 57.67 128.14 142.24 177.29 142.29 193.59"/>
    <polygon class="cls-33" points="112.47 238.67 27.9 189.52 27.85 173.22 112.43 222.37 112.47 238.67"/>
    <polygon class="cls-32" points="112.43 222.37 27.85 173.22 42.04 165.03 126.62 214.18 112.43 222.37"/>
    <polygon class="cls-38" points="126.62 214.18 126.67 230.48 112.47 238.67 112.43 222.37 126.62 214.18"/>
    <polygon class="cls-33" points="83.7 283.15 -.88 234 -.92 217.7 83.65 266.85 83.7 283.15"/>
    <polygon class="cls-38" points="97.84 258.66 97.89 274.96 83.7 283.15 83.65 266.85 97.84 258.66"/>
    <polygon class="cls-32" points="83.65 266.85 -.92 217.7 13.26 209.51 97.84 258.66 83.65 266.85"/>
    <polygon class="cls-11" points="142.21 165.77 57.63 116.62 71.82 108.43 156.39 157.58 142.21 165.77"/>
    <polygon class="cls-6" points="156.39 157.58 71.82 108.43 71.77 92.12 156.35 141.27 156.39 157.58"/>
    <polygon class="cls-11" points="112.39 210.85 27.82 161.7 42.01 153.51 126.59 202.66 112.39 210.85"/>
    <polygon class="cls-6" points="126.59 202.66 42.01 153.51 41.97 137.2 126.54 186.35 126.59 202.66"/>
    <polygon class="cls-11" points="83.62 255.33 -.96 206.18 13.23 197.99 97.81 247.14 83.62 255.33"/>
    <polygon class="cls-6" points="97.81 247.14 13.23 197.99 13.19 181.69 97.76 230.84 97.81 247.14"/>
    <polygon class="cls-38" points="156.35 141.27 156.39 157.58 142.21 165.77 142.16 149.47 156.35 141.27"/>
    <polygon class="cls-32" points="142.16 149.47 57.59 100.32 71.77 92.12 156.35 141.27 142.16 149.47"/>
    <polygon class="cls-33" points="142.21 165.77 57.63 116.62 57.59 100.32 142.16 149.47 142.21 165.77"/>
    <polygon class="cls-38" points="126.54 186.35 126.59 202.66 112.39 210.85 112.35 194.54 126.54 186.35"/>
    <polygon class="cls-33" points="112.39 210.85 27.82 161.7 27.77 145.39 112.35 194.54 112.39 210.85"/>
    <polygon class="cls-32" points="112.35 194.54 27.77 145.39 41.97 137.2 126.54 186.35 112.35 194.54"/>
    <polygon class="cls-32" points="83.57 239.03 -1 189.88 13.19 181.69 97.76 230.84 83.57 239.03"/>
    <polygon class="cls-33" points="83.62 255.33 -.95 206.18 -1 189.88 83.57 239.03 83.62 255.33"/>
    <polygon class="cls-38" points="97.76 230.84 97.81 247.14 83.62 255.33 83.57 239.03 97.76 230.84"/>
    <polygon class="cls-11" points="142.13 137.95 57.55 88.8 71.74 80.61 156.32 129.76 142.13 137.95"/>
    <polygon class="cls-6" points="156.32 129.76 71.74 80.61 71.69 64.3 156.27 113.45 156.32 129.76"/>
    <polygon class="cls-11" points="112.31 183.03 27.74 133.88 41.93 125.68 126.51 174.83 112.31 183.03"/>
    <polygon class="cls-6" points="126.51 174.83 41.93 125.68 41.89 109.38 126.46 158.53 126.51 174.83"/>
    <polygon class="cls-11" points="83.54 227.51 -1.03 178.36 13.15 170.17 97.73 219.32 83.54 227.51"/>
    <polygon class="cls-6" points="97.73 219.32 13.15 170.17 13.11 153.86 97.68 203.01 97.73 219.32"/>
    <polygon class="cls-32" points="142.08 121.65 57.51 72.5 71.69 64.3 156.27 113.45 142.08 121.65"/>
    <polygon class="cls-33" points="142.13 137.95 57.55 88.8 57.51 72.5 142.08 121.65 142.13 137.95"/>
    <polygon class="cls-38" points="156.27 113.45 156.32 129.76 142.13 137.95 142.08 121.65 156.27 113.45"/>
    <polygon class="cls-33" points="112.32 183.03 27.74 133.88 27.69 117.57 112.27 166.72 112.32 183.03"/>
    <polygon class="cls-32" points="112.27 166.72 27.69 117.57 41.89 109.38 126.46 158.53 112.27 166.72"/>
    <polygon class="cls-38" points="97.68 203.01 97.73 219.32 83.54 227.51 83.5 211.2 97.68 203.01"/>
    <polygon class="cls-33" points="83.54 227.51 -1.03 178.36 -1.08 162.05 83.5 211.2 83.54 227.51"/>
    <polygon class="cls-32" points="83.5 211.2 -1.08 162.05 13.11 153.86 97.68 203.01 83.5 211.2"/>
    <polygon class="cls-11" points="142.05 110.13 57.47 60.98 71.66 52.79 156.24 101.94 142.05 110.13"/>
    <polygon class="cls-6" points="156.24 101.94 71.66 52.79 71.62 36.48 156.19 85.63 156.24 101.94"/>
    <polygon class="cls-11" points="112.24 155.21 27.66 106.06 41.85 97.86 126.43 147.01 112.24 155.21"/>
    <polygon class="cls-6" points="126.43 147.01 41.85 97.86 41.81 81.56 126.38 130.71 126.43 147.01"/>
    <polygon class="cls-11" points="83.46 199.68 -1.11 150.53 13.07 142.34 97.65 191.49 83.46 199.68"/>
    <polygon class="cls-6" points="97.65 191.49 13.07 142.34 13.03 126.04 97.6 175.19 97.65 191.49"/>
    <polygon class="cls-32" points="142 93.82 57.43 44.67 71.62 36.48 156.19 85.63 142 93.82"/>
    <polygon class="cls-38" points="156.19 85.63 156.24 101.94 142.05 110.13 142 93.82 156.19 85.63"/>
    <polygon class="cls-33" points="142.05 110.13 57.47 60.98 57.43 44.67 142 93.82 142.05 110.13"/>
    <polygon class="cls-38" points="126.38 130.71 126.43 147.01 112.24 155.21 112.19 138.9 126.38 130.71"/>
    <polygon class="cls-33" points="112.24 155.21 27.66 106.06 27.61 89.75 112.19 138.9 112.24 155.21"/>
    <polygon class="cls-32" points="112.19 138.9 27.61 89.75 41.81 81.56 126.38 130.71 112.19 138.9"/>
    <polygon class="cls-33" points="83.46 199.68 -1.11 150.53 -1.16 134.23 83.42 183.38 83.46 199.68"/>
    <polygon class="cls-32" points="83.42 183.38 -1.16 134.23 13.03 126.04 97.6 175.19 83.42 183.38"/>
    <polygon class="cls-11" points="141.97 82.3 57.4 33.15 71.58 24.96 156.16 74.11 141.97 82.3"/>
    <polygon class="cls-6" points="156.16 74.11 71.58 24.96 71.54 8.66 156.11 57.81 156.16 74.11"/>
    <polygon class="cls-11" points="112.16 127.39 27.58 78.24 41.77 70.04 126.35 119.19 112.16 127.39"/>
    <polygon class="cls-6" points="126.35 119.19 41.77 70.04 41.73 53.73 126.3 102.88 126.35 119.19"/>
    <polygon class="cls-11" points="83.38 171.86 -1.19 122.71 13 114.52 97.57 163.67 83.38 171.86"/>
    <polygon class="cls-6" points="97.57 163.67 13 114.52 12.95 98.22 97.52 147.37 97.57 163.67"/>
    <polygon class="cls-33" points="141.97 82.3 57.4 33.15 57.35 16.85 141.93 66 141.97 82.3"/>
    <polygon class="cls-32" points="141.93 66 57.35 16.85 71.54 8.66 156.11 57.81 141.93 66"/>
    <polygon class="cls-38" points="156.11 57.81 156.16 74.11 141.97 82.3 141.93 66 156.11 57.81"/>
    <polygon class="cls-33" points="112.16 127.39 27.58 78.24 27.54 61.93 112.11 111.08 112.16 127.39"/>
    <polygon class="cls-38" points="126.3 102.88 126.35 119.19 112.16 127.39 112.11 111.08 126.3 102.88"/>
    <polygon class="cls-32" points="112.11 111.08 27.54 61.93 41.73 53.73 126.3 102.88 112.11 111.08"/>
    <polygon class="cls-38" points="97.52 147.37 97.57 163.67 83.38 171.86 83.34 155.56 97.52 147.37"/>
    <polygon class="cls-33" points="83.38 171.86 -1.19 122.71 -1.24 106.41 83.34 155.56 83.38 171.86"/>
    <polygon class="cls-32" points="83.34 155.56 -1.24 106.41 12.95 98.22 97.52 147.37 83.34 155.56"/>
    <polygon class="cls-11" points="112.08 99.56 27.5 50.41 41.7 42.21 126.27 91.36 112.08 99.56"/>
    <polygon class="cls-6" points="126.27 91.36 41.7 42.21 41.65 25.91 126.23 75.06 126.27 91.36"/>
    <polygon class="cls-11" points="83.3 144.04 -1.27 94.89 12.92 86.7 97.49 135.85 83.3 144.04"/>
    <polygon class="cls-6" points="97.49 135.85 12.92 86.7 12.87 70.39 97.45 119.54 97.49 135.85"/>
    <polygon class="cls-38" points="126.23 75.06 126.27 91.36 112.08 99.56 112.03 83.26 126.23 75.06"/>
    <polygon class="cls-33" points="112.08 99.56 27.5 50.41 27.46 34.11 112.03 83.26 112.08 99.56"/>
    <polygon class="cls-32" points="112.03 83.26 27.46 34.11 41.65 25.91 126.23 75.06 112.03 83.26"/>
    <polygon class="cls-38" points="97.45 119.54 97.49 135.85 83.31 144.04 83.26 127.73 97.45 119.54"/>
    <polygon class="cls-32" points="83.26 127.73 -1.32 78.58 12.87 70.39 97.45 119.54 83.26 127.73"/>
    <polygon class="cls-33" points="83.31 144.04 -1.27 94.89 -1.32 78.58 83.26 127.73 83.31 144.04"/>
    <path class="cls-23" d="m105.6,66.86l61.01-35.23.92,326.07-103.58,59.8-.79-277.16c-.08-27.01,18.92-59.92,42.43-73.49Zm20.75,52.33l-.05-16.31-14.19,8.19.05,16.31,14.19-8.19m.24,83.47l-.05-16.31-14.19,8.19.05,16.31,14.19-8.19m.24,83.47l-.05-16.31-14.19,8.19.05,16.31,14.19-8.19m.24,83.47l-.05-16.31-14.19,8.19.05,16.31,14.19-8.19m-.32-111.29l-.05-16.3-14.19,8.19.05,16.3,14.19-8.19m-.32-111.29l-.05-16.3-14.19,8.19.05,16.3,14.19-8.19m-28.7,72.31l-.05-16.31-14.19,8.19.05,16.31,14.19-8.19m28.54-127.96l-.05-16.3-14.19,8.19.05,16.3,14.19-8.19m-28.78,44.49l-.05-16.31-14.19,8.19.05,16.31,14.19-8.19m58.75-33.92l-.05-16.31-14.19,8.19.05,16.31,14.19-8.19m.24,83.47l-.05-16.31-14.19,8.19.05,16.31,14.19-8.19m-58.27,200.85l-.05-16.31-14.19,8.19.05,16.31,14.19-8.19m-.24-83.47l-.05-16.31-14.19,8.19.05,16.31,14.19-8.19m58.75-33.92l-.05-16.31-14.19,8.19.05,16.31,14.19-8.19m.24,83.47l-.05-16.31-14.19,8.19.05,16.31,14.19-8.19m-30.44-177.51l-.05-16.3-14.19,8.19.05,16.3,14.19-8.19m.39,139.11l-.05-16.3-14.19,8.19.05,16.3,14.19-8.19m.08,27.82l-.05-16.3-14.19,8.19.05,16.3,14.19-8.19m-.32-111.29l-.05-16.3-14.19,8.19.05,16.3,14.19-8.19m-28.78,44.48l-.05-16.3-14.19,8.19.05,16.3,14.19-8.19m-.32-111.29l-.05-16.3-14.19,8.19.05,16.3,14.19-8.19m58.75-33.92l-.05-16.3-14.19,8.19.05,16.3,14.19-8.19m.32,111.29l-.05-16.3-14.19,8.19.05,16.3,14.19-8.19m-.47-166.93l-.05-16.3-14.19,8.19.05,16.3,14.19-8.19m-58.51,117.38l-.05-16.3-14.19,8.19.05,16.3,14.19-8.19m58.75-33.92l-.05-16.3-14.19,8.19.05,16.3,14.19-8.19m-58.59,89.56l-.05-16.3-14.19,8.19.05,16.3,14.19-8.19m.32,111.29l-.05-16.3-14.19,8.19.05,16.3,14.19-8.19m-.08-27.82l-.05-16.3-14.19,8.19.05,16.3,14.19-8.19m58.75-33.92l-.05-16.3-14.19,8.19.05,16.3,14.19-8.19m-.24-83.47l-.05-16.3-14.19,8.19.05,16.3,14.19-8.19m.32,111.29l-.05-16.3-14.19,8.19.05,16.3,14.19-8.19"/>
    <polygon class="cls-38" points="126.46 158.53 126.51 174.83 112.32 183.03 112.27 166.72 126.46 158.53"/>
    <polygon class="cls-38" points="97.6 175.19 97.65 191.49 83.46 199.68 83.42 183.38 97.6 175.19"/>
    <polygon class="cls-6" points="63.96 417.51 -20.61 368.36 -21.4 91.2 63.18 140.35 63.96 417.51"/>
    <polygon class="cls-11" points="105.6 66.86 21.03 17.71 82.04 -17.51 166.62 31.64 105.6 66.86"/>
    <g class="cls-44">
      <g class="cls-3">
        <g class="cls-44">
          <path class="cls-27" d="m63.18,140.35L-21.4,91.2c0-1.39.04-2.8.14-4.22l84.58,49.15c-.1,1.42-.14,2.83-.14,4.22"/>
          <path class="cls-30" d="m63.31,136.13L-21.26,86.98c.19-2.8.57-5.65,1.12-8.51l84.58,49.15c-.55,2.87-.93,5.72-1.12,8.51"/>
          <path class="cls-29" d="m64.43,127.61L-20.15,78.46c.55-2.87,1.28-5.77,2.16-8.65l84.58,49.15c-.89,2.89-1.61,5.78-2.16,8.65"/>
          <path class="cls-5" d="m66.59,118.96L-17.98,69.81c1-3.27,2.21-6.53,3.6-9.75l84.58,49.15c-1.39,3.22-2.59,6.48-3.6,9.75"/>
          <path class="cls-14" d="m70.19,109.21L-14.38,60.06c2.01-4.66,4.41-9.23,7.11-13.58l84.58,49.15c-2.71,4.35-5.1,8.92-7.11,13.58"/>
          <path class="cls-8" d="m77.31,95.63L-7.27,46.48c4.45-7.16,9.75-13.73,15.6-19.21l84.58,49.15c-5.85,5.48-11.15,12.06-15.6,19.21"/>
          <path class="cls-14" d="m92.9,76.42L8.33,27.27c3.39-3.18,6.96-5.98,10.65-8.32l84.58,49.15c-3.7,2.34-7.27,5.14-10.65,8.32"/>
          <path class="cls-5" d="m103.56,68.1L18.98,18.95c.68-.43,1.36-.84,2.05-1.24l84.58,49.15c-.69.4-1.37.81-2.05,1.24"/>
        </g>
      </g>
    </g>
  </g>
  <g class="cls-44">
    <polygon class="cls-13" points="118.73 385.86 175.12 353.09 189.3 361.29 132.92 394.05 118.73 385.86"/>
    <polygon class="cls-18" points="118.78 369.56 175.16 336.79 175.12 353.09 118.73 385.86 118.78 369.56"/>
    <polygon class="cls-15" points="132.97 377.75 132.92 394.05 118.73 385.86 118.78 369.56 132.97 377.75"/>
    <polygon class="cls-31" points="118.78 369.56 175.16 336.79 189.35 344.98 132.97 377.75 118.78 369.56"/>
    <polygon class="cls-37" points="132.97 377.75 189.35 344.98 189.3 361.29 132.92 394.05 132.97 377.75"/>
    <polygon class="cls-13" points="141.6 399.06 197.99 366.3 212.17 374.49 155.79 407.26 141.6 399.06"/>
    <polygon class="cls-18" points="141.65 382.76 198.03 350 197.99 366.3 141.6 399.06 141.65 382.76"/>
    <polygon class="cls-13" points="118.8 356.61 175.18 323.85 189.37 332.04 132.98 364.8 118.8 356.61"/>
    <polygon class="cls-18" points="118.84 340.31 175.23 307.54 175.18 323.85 118.8 356.61 118.84 340.31"/>
    <polygon class="cls-37" points="155.84 390.95 212.22 358.19 212.17 374.49 155.79 407.26 155.84 390.95"/>
    <polygon class="cls-15" points="155.84 390.95 155.79 407.26 141.6 399.06 141.65 382.76 155.84 390.95"/>
    <polygon class="cls-31" points="141.65 382.76 198.03 350 212.22 358.19 155.84 390.95 141.65 382.76"/>
    <polygon class="cls-31" points="118.84 340.31 175.23 307.54 189.41 315.73 133.03 348.5 118.84 340.31"/>
    <polygon class="cls-37" points="133.03 348.5 189.41 315.73 189.37 332.04 132.99 364.8 133.03 348.5"/>
    <polygon class="cls-15" points="133.03 348.5 132.99 364.8 118.8 356.61 118.84 340.31 133.03 348.5"/>
    <polygon class="cls-13" points="164.44 412.25 220.83 379.48 235.01 387.67 178.63 420.44 164.44 412.25"/>
    <polygon class="cls-18" points="164.49 395.95 220.87 363.18 220.83 379.48 164.44 412.25 164.49 395.95"/>
    <polygon class="cls-13" points="141.67 369.82 198.05 337.05 212.24 345.25 155.86 378.01 141.67 369.82"/>
    <polygon class="cls-18" points="141.71 353.51 198.1 320.74 198.05 337.05 141.67 369.82 141.71 353.51"/>
    <polygon class="cls-13" points="118.85 327.35 175.23 294.59 189.42 302.78 133.04 335.54 118.85 327.35"/>
    <polygon class="cls-18" points="118.9 311.05 175.28 278.28 175.23 294.59 118.85 327.35 118.9 311.05"/>
    <polygon class="cls-31" points="164.49 395.95 220.87 363.18 235.06 371.37 178.68 404.14 164.49 395.95"/>
    <polygon class="cls-15" points="178.68 404.14 178.63 420.44 164.44 412.25 164.49 395.95 178.68 404.14"/>
    <polygon class="cls-37" points="178.68 404.14 235.06 371.37 235.01 387.67 178.63 420.44 178.68 404.14"/>
    <polygon class="cls-31" points="141.71 353.51 198.1 320.74 212.29 328.94 155.91 361.7 141.71 353.51"/>
    <polygon class="cls-37" points="155.91 361.7 212.29 328.94 212.24 345.25 155.86 378.01 155.91 361.7"/>
    <polygon class="cls-15" points="155.91 361.7 155.86 378.01 141.67 369.82 141.71 353.51 155.91 361.7"/>
    <polygon class="cls-37" points="133.08 319.24 189.47 286.48 189.42 302.78 133.04 335.54 133.08 319.24"/>
    <polygon class="cls-31" points="118.9 311.05 175.28 278.28 189.47 286.48 133.08 319.24 118.9 311.05"/>
    <polygon class="cls-15" points="133.08 319.24 133.04 335.54 118.85 327.35 118.9 311.05 133.08 319.24"/>
    <polygon class="cls-13" points="164.51 383.01 220.9 350.24 235.08 358.43 178.7 391.2 164.51 383.01"/>
    <polygon class="cls-18" points="164.56 366.7 220.94 333.93 220.9 350.24 164.51 383.01 164.56 366.7"/>
    <polygon class="cls-13" points="141.72 340.56 198.1 307.79 212.29 315.98 155.91 348.75 141.72 340.56"/>
    <polygon class="cls-18" points="141.77 324.25 198.15 291.49 198.1 307.79 141.72 340.56 141.77 324.25"/>
    <polygon class="cls-13" points="118.92 298.11 175.3 265.34 189.49 273.53 133.11 306.3 118.92 298.11"/>
    <polygon class="cls-18" points="118.97 281.8 175.35 249.03 175.3 265.34 118.92 298.11 118.97 281.8"/>
    <polygon class="cls-31" points="164.56 366.7 220.94 333.93 235.13 342.12 178.75 374.89 164.56 366.7"/>
    <polygon class="cls-37" points="178.75 374.89 235.13 342.12 235.08 358.43 178.7 391.2 178.75 374.89"/>
    <polygon class="cls-15" points="178.75 374.89 178.7 391.2 164.51 383.01 164.56 366.7 178.75 374.89"/>
    <polygon class="cls-31" points="141.77 324.25 198.15 291.49 212.34 299.68 155.95 332.45 141.77 324.25"/>
    <polygon class="cls-37" points="155.95 332.45 212.34 299.68 212.29 315.98 155.91 348.75 155.95 332.45"/>
    <polygon class="cls-15" points="155.95 332.45 155.91 348.75 141.72 340.56 141.77 324.25 155.95 332.45"/>
    <polygon class="cls-15" points="133.15 289.99 133.11 306.3 118.92 298.11 118.97 281.8 133.15 289.99"/>
    <polygon class="cls-37" points="133.15 289.99 189.54 257.22 189.49 273.53 133.11 306.3 133.15 289.99"/>
    <polygon class="cls-31" points="118.97 281.8 175.35 249.03 189.54 257.22 133.15 289.99 118.97 281.8"/>
    <polygon class="cls-13" points="164.57 353.75 220.95 320.98 235.14 329.17 178.76 361.94 164.57 353.75"/>
    <polygon class="cls-18" points="164.62 337.45 221 304.68 220.95 320.98 164.57 353.75 164.62 337.45"/>
    <polygon class="cls-13" points="141.79 311.31 198.17 278.55 212.37 286.74 155.98 319.51 141.79 311.31"/>
    <polygon class="cls-18" points="141.84 295 198.22 262.24 198.17 278.55 141.79 311.31 141.84 295"/>
    <polygon class="cls-13" points="119.03 268.88 175.41 236.11 189.6 244.31 133.22 277.08 119.03 268.88"/>
    <polygon class="cls-18" points="119.07 252.58 175.46 219.81 175.41 236.11 119.03 268.88 119.07 252.58"/>
    <polygon class="cls-31" points="164.62 337.45 221 304.68 235.19 312.87 178.8 345.64 164.62 337.45"/>
    <polygon class="cls-15" points="178.8 345.64 178.76 361.94 164.57 353.75 164.62 337.45 178.8 345.64"/>
    <polygon class="cls-37" points="178.8 345.64 235.19 312.87 235.14 329.17 178.76 361.94 178.8 345.64"/>
    <polygon class="cls-31" points="141.84 295 198.22 262.24 212.41 270.43 156.03 303.2 141.84 295"/>
    <polygon class="cls-37" points="156.03 303.2 212.41 270.43 212.37 286.74 155.98 319.51 156.03 303.2"/>
    <polygon class="cls-37" points="133.27 260.77 189.65 228.01 189.6 244.31 133.22 277.08 133.27 260.77"/>
    <polygon class="cls-31" points="119.07 252.58 175.46 219.81 189.65 228.01 133.27 260.77 119.07 252.58"/>
    <polygon class="cls-15" points="133.27 260.77 133.22 277.08 119.03 268.88 119.07 252.58 133.27 260.77"/>
    <polygon class="cls-13" points="164.64 324.51 221.02 291.74 235.22 299.93 178.83 332.7 164.64 324.51"/>
    <polygon class="cls-18" points="164.69 308.2 221.07 275.43 221.02 291.74 164.64 324.51 164.69 308.2"/>
    <polygon class="cls-13" points="141.9 282.09 198.29 249.32 212.47 257.51 156.09 290.28 141.9 282.09"/>
    <polygon class="cls-18" points="141.95 265.79 198.33 233.02 198.29 249.32 141.9 282.09 141.95 265.79"/>
    <polygon class="cls-13" points="119.1 239.64 175.49 206.87 189.67 215.07 133.29 247.83 119.1 239.64"/>
    <polygon class="cls-18" points="119.15 223.33 175.53 190.57 175.49 206.87 119.1 239.64 119.15 223.33"/>
    <polygon class="cls-15" points="178.88 316.39 178.83 332.7 164.64 324.51 164.69 308.2 178.88 316.39"/>
    <polygon class="cls-37" points="178.88 316.39 235.26 283.63 235.22 299.93 178.83 332.7 178.88 316.39"/>
    <polygon class="cls-31" points="164.69 308.2 221.07 275.43 235.26 283.63 178.88 316.39 164.69 308.2"/>
    <polygon class="cls-31" points="141.95 265.79 198.33 233.02 212.52 241.21 156.14 273.98 141.95 265.79"/>
    <polygon class="cls-37" points="156.14 273.98 212.52 241.21 212.47 257.51 156.09 290.28 156.14 273.98"/>
    <polygon class="cls-15" points="133.34 231.52 133.29 247.83 119.1 239.64 119.15 223.33 133.34 231.52"/>
    <polygon class="cls-31" points="119.15 223.33 175.53 190.57 189.72 198.76 133.34 231.52 119.15 223.33"/>
    <polygon class="cls-37" points="133.34 231.52 189.72 198.76 189.67 215.07 133.29 247.83 133.34 231.52"/>
    <polygon class="cls-13" points="164.74 295.27 221.13 262.51 235.31 270.7 178.93 303.46 164.74 295.27"/>
    <polygon class="cls-18" points="164.79 278.97 221.17 246.21 221.13 262.51 164.74 295.27 164.79 278.97"/>
    <polygon class="cls-13" points="141.97 252.85 198.36 220.08 212.54 228.27 156.16 261.04 141.97 252.85"/>
    <polygon class="cls-18" points="142.02 236.54 198.4 203.77 198.36 220.08 141.97 252.85 142.02 236.54"/>
    <polygon class="cls-13" points="119.19 210.4 175.57 177.63 189.76 185.82 133.37 218.59 119.19 210.4"/>
    <polygon class="cls-18" points="119.23 194.1 175.62 161.33 175.57 177.63 119.19 210.4 119.23 194.1"/>
    <polygon class="cls-15" points="178.97 287.16 178.93 303.46 164.74 295.27 164.79 278.97 178.97 287.16"/>
    <polygon class="cls-31" points="164.79 278.97 221.17 246.21 235.36 254.4 178.97 287.16 164.79 278.97"/>
    <polygon class="cls-37" points="178.97 287.16 235.36 254.4 235.31 270.7 178.93 303.46 178.97 287.16"/>
    <polygon class="cls-31" points="142.02 236.54 198.4 203.77 212.59 211.96 156.21 244.73 142.02 236.54"/>
    <polygon class="cls-15" points="156.21 244.73 156.16 261.04 141.97 252.85 142.02 236.54 156.21 244.73"/>
    <polygon class="cls-37" points="156.21 244.73 212.59 211.96 212.54 228.27 156.16 261.04 156.21 244.73"/>
    <polygon class="cls-31" points="119.23 194.1 175.62 161.33 189.8 169.52 133.42 202.29 119.23 194.1"/>
    <polygon class="cls-15" points="133.42 202.29 133.37 218.59 119.19 210.4 119.23 194.1 133.42 202.29"/>
    <polygon class="cls-37" points="133.42 202.29 189.8 169.52 189.76 185.82 133.37 218.59 133.42 202.29"/>
    <polygon class="cls-13" points="164.81 266.03 221.2 233.26 235.38 241.46 179 274.22 164.81 266.03"/>
    <polygon class="cls-18" points="164.86 249.72 221.24 216.96 221.2 233.26 164.81 266.03 164.86 249.72"/>
    <polygon class="cls-13" points="142.06 223.6 198.44 190.84 212.63 199.03 156.24 231.79 142.06 223.6"/>
    <polygon class="cls-18" points="142.1 207.3 198.49 174.53 198.44 190.84 142.06 223.6 142.1 207.3"/>
    <polygon class="cls-31" points="164.86 249.72 221.24 216.96 235.43 225.15 179.05 257.91 164.86 249.72"/>
    <polygon class="cls-37" points="179.05 257.91 235.43 225.15 235.38 241.46 179 274.22 179.05 257.91"/>
    <polygon class="cls-15" points="179.05 257.91 179 274.22 164.81 266.03 164.86 249.72 179.05 257.91"/>
    <polygon class="cls-15" points="156.29 215.49 156.24 231.79 142.06 223.6 142.1 207.3 156.29 215.49"/>
    <polygon class="cls-37" points="156.29 215.49 212.67 182.72 212.63 199.03 156.24 231.79 156.29 215.49"/>
    <polygon class="cls-31" points="142.1 207.3 198.49 174.53 212.67 182.72 156.29 215.49 142.1 207.3"/>
    <path class="cls-28" d="m153.51,188.25c19.59,11.31,35.42,38.73,35.36,61.24l-.53,187.48-79.46-45.87.65-228.24,43.98,25.39Zm-11.79,165.25l-.05,16.31,14.19,8.19.05-16.31-14.19-8.19m.12-58.5l-.05,16.31,14.19,8.19.05-16.31-14.19-8.19m22.85,13.19l-.05,16.31,14.19,8.19.05-16.31-14.19-8.19m-45.84,32.11l-.05,16.31,14.19,8.19.05-16.31-14.19-8.19m.31-116.97l-.05,16.31,14.19,8.19.05-16.31-14.19-8.19m45.71,26.39l-.05,16.31,14.19,8.19.05-16.31-14.19-8.19m-31.59,11.05l-14.19-8.19-.05,16.3,14.19,8.19.05-16.3m-14.3,21.03l-.05,16.31,14.19,8.19.05-16.31-14.19-8.19m23.05-45.26l-.05,16.31,14.19,8.19.05-16.31-14.19-8.19m22.54,130.16l-.05,16.31,14.19,8.19.05-16.31-14.19-8.19m14.42-79.54l-14.19-8.19-.05,16.3,14.19,8.19.05-16.3m-37.21,37.09l-.05,16.3,14.19,8.19.05-16.3-14.19-8.19m-22.87-13.2l-.05,16.3,14.19,8.19.05-16.3-14.19-8.19m45.72,26.4l-.05,16.3,14.19,8.19.05-16.3-14.19-8.19m-31.69,56.6l.05-16.3-14.19-8.19-.05,16.3,14.19,8.19m-13.69-199.95l-.05,16.3,14.19,8.19.05-16.3-14.19-8.19m36.56,213.16l.05-16.3-14.19-8.19-.05,16.3,14.19,8.19m.35-133.28l-14.19-8.19-.05,16.3,14.19,8.19.05-16.3m22.49,146.46l.05-16.3-14.19-8.19-.05,16.3,14.19,8.19m-36.53-213.14l-.05,16.3,14.19,8.19.05-16.3-14.19-8.19"/>
    <polygon class="cls-15" points="156.03 303.2 155.98 319.51 141.79 311.31 141.84 295 156.03 303.2"/>
    <polygon class="cls-15" points="156.14 273.98 156.09 290.28 141.9 282.09 141.95 265.79 156.14 273.98"/>
    <polygon class="cls-18" points="188.87 249.5 245.25 216.73 244.72 404.21 188.33 436.98 188.87 249.5"/>
    <polygon class="cls-13" points="109.52 162.86 165.91 130.09 209.89 155.49 153.51 188.25 109.52 162.86"/>
    <g class="cls-44">
      <g class="cls-42">
        <g class="cls-44">
          <path class="cls-26" d="m153.51,188.25l56.38-32.77c.5.29,1,.59,1.5.9l-56.38,32.77c-.5-.31-1-.61-1.5-.9"/>
          <path class="cls-29" d="m155.01,189.15l56.38-32.77c.6.37,1.19.76,1.77,1.16l-56.38,32.77c-.59-.4-1.18-.79-1.77-1.16"/>
          <path class="cls-19" d="m156.78,190.31l56.38-32.77c.56.38,1.11.77,1.66,1.18l-56.38,32.77c-.55-.41-1.1-.8-1.66-1.18"/>
          <path class="cls-13" d="m158.44,191.49l56.38-32.77c.54.4,1.08.81,1.61,1.23l-56.38,32.77c-.53-.42-1.07-.83-1.61-1.23"/>
          <path class="cls-12" d="m160.05,192.73l56.38-32.77c.52.41,1.04.84,1.56,1.28l-56.38,32.77c-.51-.44-1.03-.86-1.56-1.28"/>
          <path class="cls-10" d="m161.61,194l56.38-32.77c.51.43,1.02.88,1.53,1.33l-56.38,32.77c-.5-.45-1.01-.9-1.53-1.33"/>
          <path class="cls-9" d="m163.13,195.33l56.38-32.77c.5.45,1,.92,1.5,1.39l-56.38,32.77c-.49-.47-.99-.94-1.5-1.39"/>
          <path class="cls-21" d="m164.63,196.72l56.38-32.77c.5.48,1,.97,1.5,1.48l-56.38,32.77c-.49-.5-.99-.99-1.5-1.48"/>
          <path class="cls-34" d="m166.13,198.2l56.38-32.77c.5.51.99,1.02,1.48,1.55l-56.38,32.77c-.49-.52-.98-1.04-1.48-1.55"/>
          <path class="cls-35" d="m167.6,199.75l56.38-32.77c.51.54,1,1.1,1.5,1.66l-56.38,32.77c-.49-.56-.99-1.12-1.5-1.66"/>
          <path class="cls-36" d="m169.1,201.41l56.38-32.77c.51.59,1.02,1.18,1.51,1.78l-56.38,32.77c-.5-.6-1-1.2-1.51-1.78"/>
          <path class="cls-7" d="m170.62,203.19l56.38-32.77c.51.62,1.02,1.26,1.52,1.9l-56.38,32.77c-.5-.64-1.01-1.28-1.52-1.9"/>
          <path class="cls-25" d="m172.14,205.1l56.38-32.77c.55.71,1.09,1.43,1.62,2.16l-56.38,32.77c-.53-.73-1.07-1.45-1.62-2.16"/>
          <path class="cls-17" d="m173.75,207.26l56.38-32.77c.57.79,1.13,1.59,1.68,2.41l-56.38,32.77c-.55-.81-1.11-1.62-1.68-2.41"/>
          <path class="cls-20" d="m175.43,209.66l56.38-32.77c.62.92,1.22,1.85,1.8,2.79l-56.38,32.77c-.58-.94-1.18-1.87-1.8-2.79"/>
          <path class="cls-16" d="m177.23,212.45l56.38-32.77c.71,1.14,1.39,2.3,2.04,3.48l-56.38,32.77c-.65-1.17-1.33-2.33-2.04-3.48"/>
          <path class="cls-22" d="m179.27,215.93l56.38-32.77c.92,1.66,1.79,3.35,2.6,5.06l-56.38,32.77c-.81-1.71-1.67-3.4-2.6-5.06"/>
          <path class="cls-24" d="m181.87,220.99l56.38-32.77c1.97,4.18,3.58,8.48,4.76,12.77l-56.38,32.77c-1.18-4.29-2.79-8.59-4.76-12.77"/>
          <path class="cls-22" d="m186.63,233.77l56.38-32.77c.49,1.77.9,3.55,1.23,5.31l-56.38,32.77c-.33-1.76-.75-3.54-1.23-5.31"/>
          <path class="cls-16" d="m187.86,239.08l56.38-32.77c.22,1.16.4,2.32.55,3.47l-56.38,32.77c-.15-1.15-.33-2.31-.55-3.47"/>
          <path class="cls-20" d="m188.41,242.55l56.38-32.77c.12.94.22,1.87.29,2.8l-56.38,32.77c-.07-.93-.17-1.86-.29-2.8"/>
          <path class="cls-17" d="m188.71,245.35l56.38-32.77c.07.83.11,1.65.14,2.47l-56.38,32.77c-.03-.82-.07-1.64-.14-2.47"/>
          <path class="cls-25" d="m188.84,247.83l56.38-32.77c.02.56.03,1.11.02,1.67l-56.38,32.77c0-.55,0-1.11-.02-1.67"/>
        </g>
      </g>
    </g>
  </g>
  <text class="cls-41" transform="translate(469.57 182.57)"><tspan x="0" y="0">P&amp;D</tspan><tspan x="-179.75" y="48">En</tspan><tspan class="cls-43" x="-131.55" y="48">g</tspan><tspan x="-110" y="48">i</tspan><tspan class="cls-1" x="-101.85" y="48">n</tspan><tspan x="-80.3" y="48">eering S</tspan><tspan class="cls-40" x="57.15" y="48">o</tspan><tspan x="78.3" y="48">l</tspan><tspan class="cls-2" x="86.35" y="48">u</tspan><tspan x="104.3" y="48">t</tspan><tspan class="cls-39" x="119.15" y="48">i</tspan><tspan x="126.1" y="48">ons LLC</tspan></text>
</svg>