<svg id="visual" viewBox="0 0 960 540" width="960" height="540" xmlns="http://www.w3.org/2000/svg" xmlns:xlink="http://www.w3.org/1999/xlink" version="1.1"><rect width="960" height="540" fill="#ffffff"></rect><g><g transform="translate(706 374)"><path d="M46 -12.9C53 6.3 47.2 31.7 30.8 44.1C14.3 56.5 -12.9 55.8 -29.9 43C-46.9 30.2 -53.8 5.2 -47.1 -13.7C-40.5 -32.6 -20.2 -45.5 -0.3 -45.4C19.6 -45.3 39.1 -32.2 46 -12.9Z" stroke="#7dafc3" fill="none" stroke-width="6"></path></g><g transform="translate(539 384)"><path d="M21.2 -6.7C24 2 20.7 12.9 13.4 18.1C6.1 23.3 -5.1 22.9 -12.3 17.5C-19.5 12.1 -22.7 1.9 -20 -6.6C-17.2 -15.1 -8.6 -21.7 0.3 -21.8C9.1 -21.9 18.3 -15.4 21.2 -6.7Z" stroke="#7dafc3" fill="none" stroke-width="6"></path></g><g transform="translate(880 365)"><path d="M21.1 -7.1C24.2 2.6 21.3 14 13.6 19.9C5.9 25.7 -6.6 26.1 -14.8 20.2C-23 14.3 -26.9 2.2 -23.7 -7.7C-20.5 -17.6 -10.2 -25.2 -0.6 -25C9 -24.8 18 -16.8 21.1 -7.1Z" stroke="#7dafc3" fill="none" stroke-width="6"></path></g><g transform="translate(508 168)"><path d="M14.3 -5.4C16.2 1.3 13.9 8.6 8.8 12.4C3.7 16.1 -4.1 16.2 -9.7 12.4C-15.3 8.5 -18.7 0.7 -16.7 -6.1C-14.7 -12.8 -7.4 -18.5 -0.6 -18.3C6.2 -18.1 12.4 -12.1 14.3 -5.4Z" stroke="#7dafc3" fill="none" stroke-width="6"></path></g><g transform="translate(87 210)"><path d="M11.3 -3.2C12.9 1.5 11.5 7.7 7.6 10.7C3.6 13.6 -2.9 13.3 -6.9 10.2C-10.9 7.1 -12.5 1.3 -10.9 -3.3C-9.3 -7.9 -4.7 -11.2 0.1 -11.3C4.8 -11.3 9.6 -8 11.3 -3.2Z" stroke="#7dafc3" fill="none" stroke-width="6"></path></g><g transform="translate(296 420)"><path d="M28.7 -8.8C33.1 4.1 29.6 20.1 19.7 27.4C9.8 34.7 -6.7 33.2 -17.5 25.1C-28.3 17 -33.5 2.2 -29.6 -9.9C-25.7 -22.1 -12.9 -31.6 -0.3 -31.5C12.2 -31.4 24.4 -21.6 28.7 -8.8Z" stroke="#7dafc3" fill="none" stroke-width="6"></path></g><g transform="translate(366 252)"><path d="M6.3 -1.7C7.2 0.6 6.2 3.9 4.1 5.4C1.9 6.9 -1.4 6.7 -3.5 5.1C-5.6 3.5 -6.5 0.6 -5.7 -1.7C-4.9 -3.9 -2.4 -5.4 0.1 -5.5C2.7 -5.5 5.5 -4.1 6.3 -1.7Z" stroke="#7dafc3" fill="none" stroke-width="6"></path></g><g transform="translate(812 100)"><path d="M21.2 -6.1C23.9 1.6 20.2 12.2 13.2 17C6.2 21.8 -4.1 20.9 -10.7 15.8C-17.3 10.8 -20.2 1.6 -17.8 -5.6C-15.4 -12.9 -7.7 -18.2 0.8 -18.5C9.2 -18.7 18.4 -13.9 21.2 -6.1Z" stroke="#7dafc3" fill="none" stroke-width="6"></path></g><g transform="translate(360 101)"><path d="M13.9 -5C15.7 0.9 13.1 7.8 8 11.7C2.8 15.6 -4.9 16.5 -9.9 13C-14.9 9.6 -17 1.7 -14.9 -4.7C-12.8 -11 -6.4 -15.9 -0.2 -15.8C6.1 -15.7 12.2 -10.8 13.9 -5Z" stroke="#7dafc3" fill="none" stroke-width="6"></path></g><g transform="translate(76 392)"><path d="M34.3 -12.5C38.3 1.1 31 16.9 19.5 24.8C8 32.7 -7.7 32.5 -19.3 24.6C-30.8 16.7 -38.1 1 -34.1 -12.5C-30.2 -26 -15.1 -37.2 0 -37.2C15.2 -37.2 30.3 -26 34.3 -12.5Z" stroke="#7dafc3" fill="none" stroke-width="6"></path></g><g transform="translate(174 78)"><path d="M18.4 -5.5C21 2 18.3 11.7 11.8 16.5C5.3 21.3 -5 21.2 -11.5 16.4C-17.9 11.6 -20.5 2 -18 -5.4C-15.4 -12.9 -7.7 -18.2 0.1 -18.2C7.9 -18.3 15.8 -13 18.4 -5.5Z" stroke="#7dafc3" fill="none" stroke-width="6"></path></g><g transform="translate(660 184)"><path d="M16.3 -5C19 3.1 17.7 12.9 12.2 16.9C6.8 20.8 -2.9 19.1 -9.6 14C-16.3 9 -20 0.6 -17.9 -6.6C-15.8 -13.9 -7.9 -20.1 -0.6 -19.9C6.8 -19.7 13.6 -13.1 16.3 -5Z" stroke="#7dafc3" fill="none" stroke-width="6"></path></g><g transform="translate(218 289)"><path d="M36 -10.8C40.5 2.1 33.7 19.6 21.2 28.5C8.8 37.4 -9.4 37.7 -20.9 29.2C-32.5 20.7 -37.4 3.5 -32.8 -9.6C-28.2 -22.6 -14.1 -31.6 0.8 -31.8C15.8 -32.1 31.5 -23.7 36 -10.8Z" stroke="#7dafc3" fill="none" stroke-width="6"></path></g></g></svg>