<svg id="visual" viewBox="0 0 900 600" width="900" height="600" xmlns="http://www.w3.org/2000/svg" xmlns:xlink="http://www.w3.org/1999/xlink" version="1.1"><rect x="0" y="0" width="900" height="600" fill="#f0feff"></rect><path d="M0 135L113 135L113 176L225 176L225 111L338 111L338 147L450 147L450 181L563 181L563 118L675 118L675 253L788 253L788 321L900 321L900 316L900 601L900 601L788 601L788 601L675 601L675 601L563 601L563 601L450 601L450 601L338 601L338 601L225 601L225 601L113 601L113 601L0 601Z" fill="#7dafc3"></path><path d="M0 281L113 281L113 275L225 275L225 351L338 351L338 201L450 201L450 317L563 317L563 279L675 279L675 264L788 264L788 320L900 320L900 344L900 601L900 601L788 601L788 601L675 601L675 601L563 601L563 601L450 601L450 601L338 601L338 601L225 601L225 601L113 601L113 601L0 601Z" fill="#659db6"></path><path d="M0 336L113 336L113 328L225 328L225 395L338 395L338 365L450 365L450 388L563 388L563 290L675 290L675 366L788 366L788 393L900 393L900 281L900 601L900 601L788 601L788 601L675 601L675 601L563 601L563 601L450 601L450 601L338 601L338 601L225 601L225 601L113 601L113 601L0 601Z" fill="#4d8caa"></path><path d="M0 406L113 406L113 391L225 391L225 438L338 438L338 386L450 386L450 383L563 383L563 387L675 387L675 455L788 455L788 379L900 379L900 465L900 601L900 601L788 601L788 601L675 601L675 601L563 601L563 601L450 601L450 601L338 601L338 601L225 601L225 601L113 601L113 601L0 601Z" fill="#327b9d"></path><path d="M0 539L113 539L113 456L225 456L225 507L338 507L338 495L450 495L450 468L563 468L563 473L675 473L675 452L788 452L788 479L900 479L900 543L900 601L900 601L788 601L788 601L675 601L675 601L563 601L563 601L450 601L450 601L338 601L338 601L225 601L225 601L113 601L113 601L0 601Z" fill="#096a91"></path></svg>