<?xml version="1.0" encoding="UTF-8"?>
<svg id="Layer_1" data-name="Layer 1" xmlns="http://www.w3.org/2000/svg" xmlns:xlink="http://www.w3.org/1999/xlink" viewBox="0 0 1000 550">
  <defs>
    <style>
      .cls-1 {
        clip-path: url(#clippath);
      }

      .cls-2 {
        letter-spacing: -.04em;
      }

      .cls-3 {
        fill: none;
      }

      .cls-3, .cls-4, .cls-5, .cls-6, .cls-7, .cls-8, .cls-9, .cls-10, .cls-11, .cls-12, .cls-13, .cls-14, .cls-15, .cls-16, .cls-17, .cls-18, .cls-19, .cls-20, .cls-21, .cls-22, .cls-23, .cls-24, .cls-25, .cls-26, .cls-27, .cls-28, .cls-29, .cls-30, .cls-31, .cls-32, .cls-33, .cls-34 {
        stroke-width: 0px;
      }

      .cls-35 {
        letter-spacing: -.03em;
      }

      .cls-36 {
        clip-path: url(#clippath-1);
      }

      .cls-37 {
        font-family: FiraSans-SemiBold, 'Fira Sans';
        font-size: 38px;
        font-weight: 600;
      }

      .cls-37, .cls-38 {
        fill: #231f20;
      }

      .cls-38 {
        font-family: FiraSans-ExtraBold, 'Fira Sans';
        font-size: 130px;
        font-weight: 700;
      }

      .cls-39 {
        isolation: isolate;
      }

      .cls-4 {
        fill: #969252;
      }

      .cls-5 {
        fill: #0c2d39;
      }

      .cls-6 {
        fill: #0d2e3b;
      }

      .cls-7 {
        fill: #0f313d;
      }

      .cls-8 {
        fill: #0e303c;
      }

      .cls-9 {
        fill: #0e2f3c;
      }

      .cls-10 {
        fill: #0a2c38;
      }

      .cls-11 {
        fill: #072935;
      }

      .cls-12 {
        fill: #062834;
      }

      .cls-13 {
        fill: #092b37;
      }

      .cls-14 {
        fill: #10313e;
      }

      .cls-15 {
        fill: #10323e;
      }

      .cls-16 {
        fill: #a6a25b;
      }

      .cls-17 {
        fill: #afaa60;
      }

      .cls-18 {
        fill: #9d9956;
      }

      .cls-19 {
        fill: #e7de7d;
      }

      .cls-20 {
        fill: #efe580;
      }

      .cls-21 {
        fill: #00222d;
      }

      .cls-22 {
        fill: #00212d;
      }

      .cls-23 {
        fill: #052733;
      }

      .cls-24 {
        fill: #022430;
      }

      .cls-25 {
        fill: #032631;
      }

      .cls-26 {
        fill: #01232f;
      }

      .cls-27 {
        fill: #00232e;
      }

      .cls-28 {
        fill: #001b26;
      }

      .cls-29 {
        fill: #001e29;
      }

      .cls-30 {
        fill: #001d29;
      }

      .cls-31 {
        fill: #001c27;
      }

      .cls-32 {
        fill: #00202c;
      }

      .cls-33 {
        fill: #00202b;
      }

      .cls-34 {
        fill: #001f2a;
      }
    </style>
    <clipPath id="clippath">
      <path class="cls-3" d="m102.77,198.73l-84.58-49.15c-.08-27.01,18.92-59.92,42.43-73.49l84.58,49.15c-23.51,13.57-42.5,46.48-42.43,73.49Z"/>
    </clipPath>
    <clipPath id="clippath-1">
      <path class="cls-3" d="m193.1,246.63l56.38-32.77c19.59,11.31,35.42,38.73,35.36,61.24l-56.38,32.77c.06-22.52-15.76-49.93-35.36-61.24Z"/>
    </clipPath>
  </defs>
  <g class="cls-39">
    <polygon class="cls-27" points="182.35 418.9 97.78 369.75 111.96 361.56 196.54 410.71 182.35 418.9"/>
    <polygon class="cls-29" points="196.54 410.71 111.96 361.56 111.92 345.25 196.49 394.4 196.54 410.71"/>
    <polygon class="cls-17" points="182.31 402.59 97.73 353.44 111.92 345.25 196.49 394.4 182.31 402.59"/>
    <polygon class="cls-18" points="182.35 418.9 97.78 369.75 97.73 353.44 182.31 402.59 182.35 418.9"/>
    <polygon class="cls-27" points="182.27 391.08 97.7 341.93 111.89 333.74 196.46 382.89 182.27 391.08"/>
    <polygon class="cls-29" points="196.46 382.89 111.89 333.74 111.84 317.43 196.41 366.58 196.46 382.89"/>
    <polygon class="cls-27" points="152.46 436.15 67.88 387 82.08 378.81 166.65 427.96 152.46 436.15"/>
    <polygon class="cls-29" points="166.65 427.96 82.08 378.81 82.03 362.51 166.61 411.66 166.65 427.96"/>
    <polygon class="cls-18" points="182.27 391.08 97.7 341.93 97.65 325.62 182.23 374.77 182.27 391.08"/>
    <polygon class="cls-17" points="182.23 374.77 97.65 325.62 111.84 317.43 196.41 366.58 182.23 374.77"/>
    <polygon class="cls-18" points="152.46 436.15 67.88 387 67.84 370.7 152.41 419.85 152.46 436.15"/>
    <polygon class="cls-17" points="152.41 419.85 67.84 370.7 82.03 362.51 166.61 411.66 152.41 419.85"/>
    <polygon class="cls-27" points="182.19 363.25 97.62 314.1 111.81 305.91 196.38 355.06 182.19 363.25"/>
    <polygon class="cls-29" points="196.38 355.06 111.81 305.91 111.76 289.61 196.34 338.76 196.38 355.06"/>
    <polygon class="cls-27" points="152.38 408.33 67.81 359.19 82 350.99 166.57 400.14 152.38 408.33"/>
    <polygon class="cls-29" points="166.57 400.14 82 350.99 81.95 334.68 166.53 383.83 166.57 400.14"/>
    <polygon class="cls-27" points="123.61 452.81 39.03 403.66 53.22 395.47 137.79 444.62 123.61 452.81"/>
    <polygon class="cls-29" points="137.79 444.62 53.22 395.47 53.17 379.17 137.75 428.32 137.79 444.62"/>
    <polygon class="cls-18" points="182.2 363.25 97.62 314.1 97.57 297.8 182.15 346.95 182.2 363.25"/>
    <polygon class="cls-17" points="182.15 346.95 97.57 297.8 111.76 289.61 196.34 338.76 182.15 346.95"/>
    <polygon class="cls-20" points="196.34 338.76 196.38 355.06 182.2 363.25 182.15 346.95 196.34 338.76"/>
    <polygon class="cls-17" points="152.33 392.03 67.76 342.88 81.95 334.68 166.53 383.83 152.33 392.03"/>
    <polygon class="cls-20" points="166.53 383.83 166.57 400.14 152.38 408.33 152.33 392.03 166.53 383.83"/>
    <polygon class="cls-18" points="152.38 408.33 67.81 359.19 67.76 342.88 152.33 392.03 152.38 408.33"/>
    <polygon class="cls-17" points="123.56 436.51 38.99 387.36 53.17 379.17 137.75 428.32 123.56 436.51"/>
    <polygon class="cls-18" points="123.61 452.81 39.03 403.66 38.99 387.36 123.56 436.51 123.61 452.81"/>
    <polygon class="cls-27" points="182.12 335.43 97.54 286.28 111.73 278.09 196.3 327.24 182.12 335.43"/>
    <polygon class="cls-29" points="196.3 327.24 111.73 278.09 111.68 261.79 196.26 310.94 196.3 327.24"/>
    <polygon class="cls-27" points="152.3 380.51 67.73 331.36 81.92 323.16 166.49 372.31 152.3 380.51"/>
    <polygon class="cls-29" points="166.49 372.31 81.92 323.16 81.87 306.86 166.45 356.01 166.49 372.31"/>
    <polygon class="cls-27" points="123.53 424.99 38.95 375.84 53.14 367.65 137.72 416.8 123.53 424.99"/>
    <polygon class="cls-29" points="137.72 416.8 53.14 367.65 53.09 351.34 137.67 400.49 137.72 416.8"/>
    <polygon class="cls-18" points="182.12 335.43 97.54 286.28 97.49 269.98 182.07 319.13 182.12 335.43"/>
    <polygon class="cls-17" points="182.07 319.13 97.49 269.98 111.68 261.79 196.26 310.94 182.07 319.13"/>
    <polygon class="cls-18" points="152.3 380.51 67.73 331.36 67.68 315.06 152.26 364.21 152.3 380.51"/>
    <polygon class="cls-17" points="152.26 364.21 67.68 315.06 81.87 306.86 166.45 356.01 152.26 364.21"/>
    <polygon class="cls-18" points="123.53 424.99 38.95 375.84 38.91 359.53 123.48 408.68 123.53 424.99"/>
    <polygon class="cls-20" points="137.67 400.49 137.72 416.8 123.53 424.99 123.48 408.68 137.67 400.49"/>
    <polygon class="cls-17" points="123.48 408.68 38.91 359.53 53.09 351.34 137.67 400.49 123.48 408.68"/>
    <polygon class="cls-27" points="182.04 307.61 97.46 258.46 111.65 250.27 196.22 299.42 182.04 307.61"/>
    <polygon class="cls-29" points="196.22 299.42 111.65 250.27 111.6 233.96 196.18 283.11 196.22 299.42"/>
    <polygon class="cls-27" points="152.22 352.69 67.65 303.54 81.84 295.34 166.42 344.49 152.22 352.69"/>
    <polygon class="cls-29" points="166.42 344.49 81.84 295.34 81.79 279.04 166.37 328.19 166.42 344.49"/>
    <polygon class="cls-27" points="123.45 397.17 38.87 348.02 53.06 339.83 137.64 388.97 123.45 397.17"/>
    <polygon class="cls-29" points="137.64 388.97 53.06 339.83 53.01 323.52 137.59 372.67 137.64 388.97"/>
    <polygon class="cls-20" points="196.18 283.11 196.22 299.42 182.04 307.61 181.99 291.3 196.18 283.11"/>
    <polygon class="cls-18" points="182.04 307.61 97.46 258.46 97.42 242.15 181.99 291.3 182.04 307.61"/>
    <polygon class="cls-17" points="181.99 291.3 97.42 242.15 111.6 233.96 196.18 283.11 181.99 291.3"/>
    <polygon class="cls-18" points="152.22 352.69 67.65 303.54 67.6 287.24 152.18 336.39 152.22 352.69"/>
    <polygon class="cls-20" points="166.37 328.19 166.42 344.49 152.22 352.69 152.18 336.39 166.37 328.19"/>
    <polygon class="cls-17" points="152.18 336.39 67.6 287.24 81.79 279.04 166.37 328.19 152.18 336.39"/>
    <polygon class="cls-20" points="137.59 372.67 137.64 388.97 123.45 397.17 123.4 380.86 137.59 372.67"/>
    <polygon class="cls-17" points="123.4 380.86 38.83 331.71 53.01 323.52 137.59 372.67 123.4 380.86"/>
    <polygon class="cls-18" points="123.45 397.17 38.87 348.02 38.83 331.71 123.4 380.86 123.45 397.17"/>
    <polygon class="cls-27" points="181.96 279.78 97.38 230.63 111.57 222.44 196.15 271.59 181.96 279.78"/>
    <polygon class="cls-29" points="196.15 271.59 111.57 222.44 111.52 206.14 196.1 255.29 196.15 271.59"/>
    <polygon class="cls-27" points="152.14 324.87 67.57 275.72 81.76 267.52 166.34 316.67 152.14 324.87"/>
    <polygon class="cls-29" points="166.34 316.67 81.76 267.52 81.72 251.21 166.29 300.36 166.34 316.67"/>
    <polygon class="cls-27" points="123.37 369.35 38.8 320.2 52.98 312.01 137.56 361.15 123.37 369.35"/>
    <polygon class="cls-29" points="137.56 361.15 52.98 312.01 52.94 295.7 137.51 344.85 137.56 361.15"/>
    <polygon class="cls-18" points="181.96 279.78 97.38 230.63 97.34 214.33 181.91 263.48 181.96 279.78"/>
    <polygon class="cls-20" points="196.1 255.29 196.15 271.59 181.96 279.78 181.91 263.48 196.1 255.29"/>
    <polygon class="cls-17" points="181.91 263.48 97.34 214.33 111.52 206.14 196.1 255.29 181.91 263.48"/>
    <polygon class="cls-20" points="166.29 300.36 166.34 316.67 152.14 324.87 152.1 308.56 166.29 300.36"/>
    <polygon class="cls-18" points="152.14 324.87 67.57 275.72 67.52 259.41 152.1 308.56 152.14 324.87"/>
    <polygon class="cls-17" points="152.1 308.56 67.52 259.41 81.72 251.21 166.29 300.36 152.1 308.56"/>
    <polygon class="cls-18" points="123.37 369.35 38.8 320.2 38.75 303.89 123.32 353.04 123.37 369.35"/>
    <polygon class="cls-17" points="123.32 353.04 38.75 303.89 52.94 295.7 137.51 344.85 123.32 353.04"/>
    <polygon class="cls-27" points="181.88 251.96 97.3 202.81 111.49 194.62 196.07 243.77 181.88 251.96"/>
    <polygon class="cls-29" points="196.07 243.77 111.49 194.62 111.44 178.32 196.02 227.47 196.07 243.77"/>
    <polygon class="cls-27" points="152.07 297.04 67.49 247.89 81.68 239.7 166.26 288.85 152.07 297.04"/>
    <polygon class="cls-29" points="166.26 288.85 81.68 239.7 81.64 223.4 166.21 272.54 166.26 288.85"/>
    <polygon class="cls-27" points="123.29 341.53 38.72 292.38 52.9 284.19 137.48 333.34 123.29 341.53"/>
    <polygon class="cls-29" points="137.48 333.34 52.9 284.19 52.86 267.88 137.43 317.03 137.48 333.34"/>
    <polygon class="cls-18" points="181.88 251.96 97.3 202.81 97.26 186.51 181.83 235.66 181.88 251.96"/>
    <polygon class="cls-17" points="181.83 235.66 97.26 186.51 111.44 178.32 196.02 227.47 181.83 235.66"/>
    <polygon class="cls-18" points="152.07 297.04 67.49 247.89 67.44 231.59 152.02 280.74 152.07 297.04"/>
    <polygon class="cls-17" points="152.02 280.74 67.44 231.59 81.64 223.39 166.21 272.54 152.02 280.74"/>
    <polygon class="cls-20" points="166.21 272.54 166.26 288.85 152.07 297.04 152.02 280.74 166.21 272.54"/>
    <polygon class="cls-18" points="123.29 341.53 38.72 292.38 38.67 276.07 123.25 325.22 123.29 341.53"/>
    <polygon class="cls-20" points="137.43 317.03 137.48 333.34 123.29 341.53 123.25 325.22 137.43 317.03"/>
    <polygon class="cls-17" points="123.25 325.22 38.67 276.07 52.86 267.88 137.43 317.03 123.25 325.22"/>
    <polygon class="cls-27" points="181.8 224.14 97.23 174.99 111.41 166.8 195.99 215.95 181.8 224.14"/>
    <polygon class="cls-29" points="195.99 215.95 111.41 166.8 111.37 150.49 195.94 199.64 195.99 215.95"/>
    <polygon class="cls-27" points="151.99 269.22 67.41 220.07 81.6 211.88 166.18 261.03 151.99 269.22"/>
    <polygon class="cls-29" points="166.18 261.03 81.6 211.88 81.56 195.58 166.13 244.72 166.18 261.03"/>
    <polygon class="cls-27" points="123.21 313.7 38.64 264.55 52.82 256.36 137.4 305.51 123.21 313.7"/>
    <polygon class="cls-29" points="137.4 305.51 52.82 256.36 52.78 240.06 137.35 289.21 137.4 305.51"/>
    <polygon class="cls-18" points="181.8 224.14 97.23 174.99 97.18 158.68 181.75 207.83 181.8 224.14"/>
    <polygon class="cls-20" points="195.94 199.64 195.99 215.95 181.8 224.14 181.75 207.83 195.94 199.64"/>
    <polygon class="cls-17" points="181.75 207.83 97.18 158.68 111.37 150.49 195.94 199.64 181.75 207.83"/>
    <polygon class="cls-18" points="151.99 269.22 67.41 220.07 67.36 203.77 151.94 252.92 151.99 269.22"/>
    <polygon class="cls-20" points="166.13 244.72 166.18 261.03 151.99 269.22 151.94 252.92 166.13 244.72"/>
    <polygon class="cls-17" points="151.94 252.92 67.36 203.77 81.56 195.58 166.13 244.72 151.94 252.92"/>
    <polygon class="cls-18" points="123.21 313.7 38.64 264.55 38.59 248.25 123.17 297.4 123.21 313.7"/>
    <polygon class="cls-17" points="123.17 297.4 38.59 248.25 52.78 240.06 137.35 289.21 123.17 297.4"/>
    <polygon class="cls-20" points="137.35 289.21 137.4 305.51 123.21 313.7 123.17 297.4 137.35 289.21"/>
    <polygon class="cls-27" points="181.72 196.32 97.15 147.17 111.33 138.97 195.91 188.12 181.72 196.32"/>
    <polygon class="cls-29" points="195.91 188.12 111.33 138.97 111.29 122.67 195.86 171.82 195.91 188.12"/>
    <polygon class="cls-27" points="151.91 241.4 67.33 192.25 81.53 184.06 166.1 233.21 151.91 241.4"/>
    <polygon class="cls-29" points="166.1 233.21 81.53 184.06 81.48 167.75 166.05 216.9 166.1 233.21"/>
    <polygon class="cls-27" points="123.13 285.88 38.56 236.73 52.75 228.54 137.32 277.69 123.13 285.88"/>
    <polygon class="cls-29" points="137.32 277.69 52.75 228.54 52.7 212.24 137.27 261.39 137.32 277.69"/>
    <polygon class="cls-20" points="195.86 171.82 195.91 188.12 181.72 196.32 181.68 180.01 195.86 171.82"/>
    <polygon class="cls-18" points="181.72 196.32 97.15 147.17 97.1 130.86 181.68 180.01 181.72 196.32"/>
    <polygon class="cls-17" points="181.68 180.01 97.1 130.86 111.29 122.67 195.86 171.82 181.68 180.01"/>
    <polygon class="cls-18" points="151.91 241.4 67.33 192.25 67.29 175.94 151.86 225.09 151.91 241.4"/>
    <polygon class="cls-17" points="151.86 225.09 67.29 175.94 81.48 167.75 166.05 216.9 151.86 225.09"/>
    <polygon class="cls-18" points="123.13 285.88 38.56 236.73 38.51 220.43 123.09 269.58 123.13 285.88"/>
    <polygon class="cls-17" points="123.09 269.58 38.51 220.43 52.7 212.24 137.27 261.39 123.09 269.58"/>
    <polygon class="cls-27" points="181.64 168.5 97.07 119.35 111.25 111.15 195.83 160.3 181.64 168.5"/>
    <polygon class="cls-29" points="195.83 160.3 111.25 111.15 111.21 94.85 195.78 144 195.83 160.3"/>
    <polygon class="cls-27" points="151.83 213.57 67.25 164.42 81.45 156.23 166.02 205.38 151.83 213.57"/>
    <polygon class="cls-29" points="166.02 205.38 81.45 156.23 81.4 139.93 165.98 189.08 166.02 205.38"/>
    <polygon class="cls-27" points="123.06 258.06 38.48 208.91 52.67 200.72 137.24 249.87 123.06 258.06"/>
    <polygon class="cls-29" points="137.24 249.87 52.67 200.72 52.62 184.41 137.2 233.56 137.24 249.87"/>
    <polygon class="cls-18" points="181.64 168.5 97.07 119.35 97.02 103.04 181.6 152.19 181.64 168.5"/>
    <polygon class="cls-17" points="181.6 152.19 97.02 103.04 111.21 94.85 195.78 144 181.6 152.19"/>
    <polygon class="cls-20" points="195.78 144 195.83 160.3 181.64 168.5 181.6 152.19 195.78 144"/>
    <polygon class="cls-20" points="165.98 189.08 166.02 205.38 151.83 213.57 151.78 197.27 165.98 189.08"/>
    <polygon class="cls-17" points="151.78 197.27 67.21 148.12 81.4 139.93 165.98 189.08 151.78 197.27"/>
    <polygon class="cls-18" points="151.83 213.57 67.25 164.42 67.21 148.12 151.78 197.27 151.83 213.57"/>
    <polygon class="cls-17" points="123.01 241.75 38.43 192.6 52.62 184.41 137.2 233.56 123.01 241.75"/>
    <polygon class="cls-18" points="123.06 258.06 38.48 208.91 38.43 192.6 123.01 241.75 123.06 258.06"/>
    <polygon class="cls-20" points="137.2 233.56 137.24 249.87 123.06 258.06 123.01 241.75 137.2 233.56"/>
    <polygon class="cls-27" points="181.56 140.68 96.99 91.53 111.18 83.33 195.75 132.48 181.56 140.68"/>
    <polygon class="cls-29" points="195.75 132.48 111.18 83.33 111.13 67.03 195.7 116.18 195.75 132.48"/>
    <polygon class="cls-27" points="151.75 185.75 67.17 136.6 81.37 128.41 165.94 177.56 151.75 185.75"/>
    <polygon class="cls-29" points="165.94 177.56 81.37 128.41 81.32 112.11 165.9 161.26 165.94 177.56"/>
    <polygon class="cls-27" points="122.98 230.23 38.4 181.08 52.59 172.89 137.16 222.04 122.98 230.23"/>
    <polygon class="cls-29" points="137.16 222.04 52.59 172.89 52.54 156.59 137.12 205.74 137.16 222.04"/>
    <polygon class="cls-17" points="181.52 124.37 96.94 75.22 111.13 67.03 195.7 116.18 181.52 124.37"/>
    <polygon class="cls-18" points="181.56 140.68 96.99 91.53 96.94 75.22 181.52 124.37 181.56 140.68"/>
    <polygon class="cls-20" points="195.7 116.18 195.75 132.48 181.56 140.68 181.52 124.37 195.7 116.18"/>
    <polygon class="cls-20" points="165.9 161.26 165.94 177.56 151.75 185.75 151.7 169.45 165.9 161.26"/>
    <polygon class="cls-17" points="151.7 169.45 67.13 120.3 81.32 112.11 165.9 161.26 151.7 169.45"/>
    <polygon class="cls-18" points="151.75 185.75 67.17 136.6 67.13 120.3 151.7 169.45 151.75 185.75"/>
    <polygon class="cls-18" points="122.98 230.23 38.4 181.08 38.35 164.78 122.93 213.93 122.98 230.23"/>
    <polygon class="cls-20" points="137.12 205.74 137.16 222.04 122.98 230.23 122.93 213.93 137.12 205.74"/>
    <polygon class="cls-17" points="122.93 213.93 38.35 164.78 52.54 156.59 137.12 205.74 122.93 213.93"/>
    <polygon class="cls-27" points="151.67 157.93 67.1 108.78 81.29 100.59 165.86 149.74 151.67 157.93"/>
    <polygon class="cls-29" points="165.86 149.74 81.29 100.59 81.24 84.28 165.82 133.43 165.86 149.74"/>
    <polygon class="cls-27" points="122.9 202.41 38.32 153.26 52.51 145.07 137.08 194.22 122.9 202.41"/>
    <polygon class="cls-29" points="137.08 194.22 52.51 145.07 52.46 128.77 137.04 177.92 137.08 194.22"/>
    <polygon class="cls-18" points="151.67 157.93 67.1 108.78 67.05 92.48 151.62 141.63 151.67 157.93"/>
    <polygon class="cls-17" points="151.62 141.63 67.05 92.48 81.24 84.28 165.82 133.43 151.62 141.63"/>
    <polygon class="cls-20" points="165.82 133.43 165.86 149.74 151.67 157.93 151.62 141.63 165.82 133.43"/>
    <polygon class="cls-20" points="137.04 177.92 137.08 194.22 122.9 202.41 122.85 186.11 137.04 177.92"/>
    <polygon class="cls-17" points="122.85 186.11 38.28 136.96 52.46 128.77 137.04 177.92 122.85 186.11"/>
    <polygon class="cls-18" points="122.9 202.41 38.32 153.26 38.28 136.96 122.85 186.11 122.9 202.41"/>
    <path class="cls-14" d="m145.2,125.24l61.01-35.22.92,326.06-103.57,59.8-.79-277.15c-.08-27.01,18.92-59.92,42.43-73.49Zm20.67,24.5l-.05-16.31-14.19,8.19.05,16.31,14.19-8.19m.71,250.4l-.05-16.31-14.19,8.19.05,16.31,14.19-8.19m-.24-83.47l-.05-16.31-14.19,8.19.05,16.31,14.19-8.19m-.24-83.47l-.05-16.31-14.19,8.19.05,16.31,14.19-8.19m29.65-100.72l-.05-16.31-14.19,8.19.05,16.31,14.19-8.19m.47,166.93l-.05-16.31-14.19,8.19.05,16.31,14.19-8.19m.24,83.47l-.05-16.31-14.19,8.19.05,16.31,14.19-8.19m-58.75,33.92l-.05-16.31-14.19,8.19.05,16.31,14.19-8.19m28.78-44.49l-.05-16.3-14.19,8.19.05,16.3,14.19-8.19m-29.02-38.98l-.05-16.31-14.19,8.19.05,16.31,14.19-8.19m28.94,11.16l-.05-16.3-14.19,8.19.05,16.3,14.19-8.19m29.57-128.54l-.05-16.31-14.19,8.19.05,16.31,14.19-8.19m-58.75,33.92l-.05-16.31-14.19,8.19.05,16.31,14.19-8.19m28.78-44.49l-.05-16.3-14.19,8.19.05,16.3,14.19-8.19m.16,55.65l-.05-16.3-14.19,8.19.05,16.3,14.19-8.19m.47,166.93l-.05-16.3-14.19,8.19.05,16.3,14.19-8.19m-.39-139.11l-.05-16.3-14.19,8.19.05,16.3,14.19-8.19m-.32-111.29l-.05-16.3-14.19,8.19.05,16.3,14.19-8.19m30.44,177.5l-.05-16.3-14.19,8.19.05,16.3,14.19-8.19m-.08-27.82l-.05-16.3-14.19,8.19.05,16.3,14.19-8.19m-58.75,33.92l-.05-16.3-14.19,8.19.05,16.3,14.19-8.19m.08,27.82l-.05-16.3-14.19,8.19.05,16.3,14.19-8.19m58.27-200.85l-.05-16.3-14.19,8.19.05,16.3,14.19-8.19m.16,55.65l-.05-16.3-14.19,8.19.05,16.3,14.19-8.19m-58.9-21.73l-.05-16.3-14.19,8.19.05,16.3,14.19-8.19m.16,55.65l-.05-16.3-14.19,8.19.05,16.3,14.19-8.19m59.22,133.02l-.05-16.3-14.19,8.19.05,16.3,14.19-8.19m-58.75,33.92l-.05-16.3-14.19,8.19.05,16.3,14.19-8.19m58.35-173.03l-.05-16.3-14.19,8.19.05,16.3,14.19-8.19m-.32-111.29l-.05-16.3-14.19,8.19.05,16.3,14.19-8.19m-58.43,145.2l-.05-16.3-14.19,8.19.05,16.3,14.19-8.19m-.32-111.29l-.05-16.3-14.19,8.19.05,16.3,14.19-8.19"/>
    <polygon class="cls-20" points="196.49 394.4 196.54 410.71 182.35 418.9 182.31 402.59 196.49 394.4"/>
    <polygon class="cls-20" points="196.41 366.58 196.46 382.89 182.27 391.08 182.23 374.77 196.41 366.58"/>
    <polygon class="cls-20" points="166.61 411.66 166.65 427.96 152.46 436.15 152.41 419.85 166.61 411.66"/>
    <polygon class="cls-20" points="137.75 428.32 137.79 444.62 123.61 452.81 123.56 436.51 137.75 428.32"/>
    <polygon class="cls-20" points="196.26 310.94 196.3 327.24 182.12 335.43 182.07 319.13 196.26 310.94"/>
    <polygon class="cls-20" points="166.45 356.01 166.5 372.31 152.3 380.51 152.26 364.21 166.45 356.01"/>
    <polygon class="cls-20" points="137.51 344.85 137.56 361.16 123.37 369.35 123.32 353.04 137.51 344.85"/>
    <polygon class="cls-20" points="196.02 227.47 196.07 243.77 181.88 251.96 181.83 235.66 196.02 227.47"/>
    <polygon class="cls-20" points="166.05 216.9 166.1 233.21 151.91 241.4 151.86 225.09 166.05 216.9"/>
    <polygon class="cls-20" points="137.27 261.39 137.32 277.69 123.13 285.88 123.09 269.58 137.27 261.39"/>
    <polygon class="cls-29" points="103.55 475.88 18.98 426.73 18.19 149.58 102.77 198.73 103.55 475.88"/>
    <polygon class="cls-27" points="145.2 125.24 60.62 76.09 121.63 40.87 206.2 90.02 145.2 125.24"/>
    <g class="cls-39">
      <g class="cls-1">
        <g class="cls-39">
          <path class="cls-28" d="m102.77,198.73l-84.58-49.15c0-1.39.04-2.8.14-4.22l84.58,49.15c-.1,1.42-.14,2.83-.14,4.22"/>
          <path class="cls-31" d="m102.91,194.51l-84.58-49.15c.19-2.8.57-5.65,1.12-8.51l84.58,49.15c-.55,2.87-.93,5.72-1.12,8.51"/>
          <path class="cls-30" d="m104.02,185.99l-84.58-49.15c.55-2.87,1.28-5.77,2.16-8.65l84.58,49.15c-.89,2.89-1.61,5.78-2.16,8.65"/>
          <path class="cls-34" d="m106.19,177.34l-84.58-49.15c1-3.27,2.21-6.53,3.6-9.75l84.58,49.15c-1.39,3.22-2.59,6.48-3.6,9.75"/>
          <path class="cls-33" d="m109.78,167.59L25.21,118.44c2.01-4.66,4.41-9.23,7.11-13.58l84.58,49.15c-2.71,4.35-5.1,8.92-7.11,13.58"/>
          <path class="cls-22" d="m116.9,154l-84.58-49.15c4.45-7.16,9.75-13.73,15.6-19.21l84.58,49.15c-5.85,5.48-11.15,12.06-15.6,19.21"/>
          <path class="cls-33" d="m132.49,134.79l-84.58-49.15c3.39-3.18,6.96-5.98,10.65-8.32l84.58,49.15c-3.7,2.34-7.27,5.14-10.65,8.32"/>
          <path class="cls-34" d="m143.15,126.48l-84.58-49.15c.68-.43,1.36-.84,2.05-1.24l84.58,49.15c-.69.4-1.37.81-2.05,1.24"/>
        </g>
      </g>
    </g>
  </g>
  <g class="cls-39">
    <polygon class="cls-32" points="158.33 444.23 214.71 411.47 228.9 419.66 172.51 452.42 158.33 444.23"/>
    <polygon class="cls-8" points="158.37 427.93 214.76 395.16 214.71 411.47 158.33 444.23 158.37 427.93"/>
    <polygon class="cls-16" points="158.37 427.93 214.76 395.16 228.94 403.35 172.56 436.12 158.37 427.93"/>
    <polygon class="cls-19" points="172.56 436.12 228.94 403.35 228.9 419.66 172.51 452.42 172.56 436.12"/>
    <polygon class="cls-32" points="181.2 457.44 237.58 424.67 251.77 432.86 195.38 465.63 181.2 457.44"/>
    <polygon class="cls-8" points="181.24 441.13 237.63 408.37 237.58 424.67 181.2 457.44 181.24 441.13"/>
    <polygon class="cls-32" points="158.39 414.99 214.77 382.22 228.96 390.41 172.58 423.18 158.39 414.99"/>
    <polygon class="cls-8" points="158.44 398.68 214.82 365.91 214.77 382.22 158.39 414.99 158.44 398.68"/>
    <polygon class="cls-16" points="181.24 441.13 237.63 408.37 251.81 416.56 195.43 449.33 181.24 441.13"/>
    <polygon class="cls-19" points="195.43 449.33 251.81 416.56 251.77 432.86 195.38 465.63 195.43 449.33"/>
    <polygon class="cls-16" points="158.44 398.68 214.82 365.91 229.01 374.1 172.62 406.87 158.44 398.68"/>
    <polygon class="cls-19" points="172.62 406.87 229.01 374.1 228.96 390.41 172.58 423.18 172.62 406.87"/>
    <polygon class="cls-32" points="204.03 470.62 260.42 437.85 274.61 446.05 218.23 478.82 204.03 470.62"/>
    <polygon class="cls-8" points="204.08 454.32 260.46 421.55 260.42 437.85 204.03 470.62 204.08 454.32"/>
    <polygon class="cls-32" points="181.27 428.19 237.65 395.43 251.84 403.62 195.45 436.38 181.27 428.19"/>
    <polygon class="cls-8" points="181.31 411.88 237.7 379.12 237.65 395.43 181.27 428.19 181.31 411.88"/>
    <polygon class="cls-32" points="158.44 385.72 214.82 352.96 229.01 361.15 172.63 393.91 158.44 385.72"/>
    <polygon class="cls-8" points="158.49 369.42 214.87 336.66 214.82 352.96 158.44 385.72 158.49 369.42"/>
    <polygon class="cls-19" points="218.27 462.51 274.66 429.75 274.61 446.05 218.23 478.82 218.27 462.51"/>
    <polygon class="cls-16" points="204.08 454.32 260.46 421.55 274.66 429.75 218.27 462.51 204.08 454.32"/>
    <polygon class="cls-19" points="195.5 420.07 251.88 387.31 251.84 403.62 195.45 436.38 195.5 420.07"/>
    <polygon class="cls-16" points="181.31 411.88 237.7 379.12 251.88 387.31 195.5 420.07 181.31 411.88"/>
    <polygon class="cls-19" points="172.67 377.61 229.06 344.85 229.01 361.15 172.63 393.91 172.67 377.61"/>
    <polygon class="cls-16" points="158.49 369.42 214.87 336.66 229.06 344.85 172.67 377.61 158.49 369.42"/>
    <polygon class="cls-32" points="204.1 441.38 260.49 408.61 274.67 416.8 218.29 449.57 204.1 441.38"/>
    <polygon class="cls-8" points="204.15 425.07 260.53 392.3 260.49 408.61 204.1 441.38 204.15 425.07"/>
    <polygon class="cls-32" points="181.31 398.93 237.69 366.16 251.89 374.36 195.5 407.12 181.31 398.93"/>
    <polygon class="cls-8" points="181.36 382.63 237.74 349.86 237.69 366.16 181.31 398.93 181.36 382.63"/>
    <polygon class="cls-32" points="158.51 356.48 214.89 323.71 229.09 331.91 172.7 364.68 158.51 356.48"/>
    <polygon class="cls-8" points="158.56 340.17 214.94 307.41 214.89 323.71 158.51 356.48 158.56 340.17"/>
    <polygon class="cls-16" points="204.15 425.07 260.53 392.3 274.72 400.49 218.34 433.26 204.15 425.07"/>
    <polygon class="cls-19" points="218.34 433.26 274.72 400.49 274.67 416.8 218.29 449.57 218.34 433.26"/>
    <polygon class="cls-19" points="195.55 390.82 251.93 358.05 251.89 374.36 195.5 407.12 195.55 390.82"/>
    <polygon class="cls-16" points="181.36 382.63 237.74 349.86 251.93 358.05 195.55 390.82 181.36 382.63"/>
    <polygon class="cls-4" points="195.55 390.82 195.5 407.12 181.31 398.93 181.36 382.63 195.55 390.82"/>
    <polygon class="cls-19" points="172.75 348.37 229.13 315.6 229.09 331.91 172.7 364.68 172.75 348.37"/>
    <polygon class="cls-16" points="158.56 340.17 214.94 307.41 229.13 315.6 172.75 348.37 158.56 340.17"/>
    <polygon class="cls-32" points="204.16 412.12 260.55 379.35 274.74 387.55 218.35 420.31 204.16 412.12"/>
    <polygon class="cls-8" points="204.21 395.82 260.59 363.05 260.55 379.35 204.16 412.12 204.21 395.82"/>
    <polygon class="cls-32" points="181.39 369.69 237.77 336.92 251.96 345.11 195.57 377.88 181.39 369.69"/>
    <polygon class="cls-8" points="181.43 353.38 237.82 320.61 237.77 336.92 181.39 369.69 181.43 353.38"/>
    <polygon class="cls-32" points="158.63 327.26 215.01 294.49 229.2 302.68 172.81 335.45 158.63 327.26"/>
    <polygon class="cls-8" points="158.67 310.95 215.06 278.19 215.01 294.49 158.63 327.26 158.67 310.95"/>
    <polygon class="cls-16" points="204.21 395.82 260.59 363.05 274.78 371.25 218.4 404.01 204.21 395.82"/>
    <polygon class="cls-19" points="218.4 404.01 274.78 371.25 274.74 387.55 218.35 420.32 218.4 404.01"/>
    <polygon class="cls-16" points="181.43 353.38 237.82 320.61 252 328.8 195.62 361.57 181.43 353.38"/>
    <polygon class="cls-19" points="195.62 361.57 252 328.8 251.96 345.11 195.57 377.88 195.62 361.57"/>
    <polygon class="cls-19" points="172.86 319.15 229.24 286.38 229.2 302.68 172.81 335.45 172.86 319.15"/>
    <polygon class="cls-16" points="158.67 310.95 215.06 278.19 229.24 286.38 172.86 319.15 158.67 310.95"/>
    <polygon class="cls-32" points="204.24 382.88 260.62 350.11 274.81 358.31 218.42 391.07 204.24 382.88"/>
    <polygon class="cls-8" points="204.28 366.57 260.67 333.81 260.62 350.11 204.24 382.88 204.28 366.57"/>
    <polygon class="cls-32" points="181.5 340.46 237.88 307.69 252.07 315.88 195.68 348.65 181.5 340.46"/>
    <polygon class="cls-8" points="181.54 324.16 237.93 291.39 237.88 307.69 181.5 340.46 181.54 324.16"/>
    <polygon class="cls-32" points="158.7 298.01 215.08 265.25 229.27 273.44 172.88 306.2 158.7 298.01"/>
    <polygon class="cls-8" points="158.74 281.7 215.13 248.94 215.08 265.25 158.7 298.01 158.74 281.7"/>
    <polygon class="cls-19" points="218.47 374.76 274.85 342 274.81 358.31 218.42 391.07 218.47 374.76"/>
    <polygon class="cls-16" points="204.28 366.57 260.67 333.81 274.85 342 218.47 374.76 204.28 366.57"/>
    <polygon class="cls-16" points="181.54 324.16 237.93 291.39 252.11 299.58 195.73 332.35 181.54 324.16"/>
    <polygon class="cls-19" points="195.73 332.35 252.11 299.58 252.07 315.88 195.68 348.65 195.73 332.35"/>
    <polygon class="cls-19" points="172.93 289.89 229.31 257.13 229.27 273.44 172.88 306.2 172.93 289.89"/>
    <polygon class="cls-16" points="158.74 281.7 215.13 248.94 229.31 257.13 172.93 289.89 158.74 281.7"/>
    <polygon class="cls-32" points="204.33 353.65 260.72 320.88 274.9 329.07 218.52 361.84 204.33 353.65"/>
    <polygon class="cls-8" points="204.38 337.34 260.76 304.58 260.72 320.88 204.33 353.65 204.38 337.34"/>
    <polygon class="cls-32" points="181.57 311.22 237.95 278.45 252.14 286.64 195.75 319.41 181.57 311.22"/>
    <polygon class="cls-8" points="181.61 294.91 238 262.14 237.95 278.45 181.57 311.22 181.61 294.91"/>
    <polygon class="cls-32" points="158.78 268.77 215.16 236 229.35 244.19 172.97 276.96 158.78 268.77"/>
    <polygon class="cls-8" points="158.83 252.47 215.21 219.7 215.16 236 158.78 268.77 158.83 252.47"/>
    <polygon class="cls-16" points="204.38 337.34 260.76 304.58 274.95 312.77 218.57 345.53 204.38 337.34"/>
    <polygon class="cls-19" points="218.57 345.53 274.95 312.77 274.9 329.07 218.52 361.84 218.57 345.53"/>
    <polygon class="cls-19" points="195.8 303.1 252.18 270.33 252.14 286.64 195.75 319.41 195.8 303.1"/>
    <polygon class="cls-16" points="181.61 294.91 238 262.14 252.18 270.33 195.8 303.1 181.61 294.91"/>
    <polygon class="cls-16" points="158.83 252.47 215.21 219.7 229.4 227.89 173.01 260.66 158.83 252.47"/>
    <polygon class="cls-19" points="173.01 260.66 229.4 227.89 229.35 244.19 172.97 276.96 173.01 260.66"/>
    <polygon class="cls-32" points="204.4 324.4 260.79 291.64 274.98 299.83 218.6 332.6 204.4 324.4"/>
    <polygon class="cls-8" points="204.45 308.09 260.83 275.33 260.79 291.64 204.4 324.4 204.45 308.09"/>
    <polygon class="cls-32" points="181.65 281.97 238.03 249.21 252.22 257.4 195.84 290.16 181.65 281.97"/>
    <polygon class="cls-8" points="181.7 265.67 238.08 232.91 238.03 249.21 181.65 281.97 181.7 265.67"/>
    <polygon class="cls-16" points="204.45 308.09 260.83 275.33 275.03 283.52 218.64 316.29 204.45 308.09"/>
    <polygon class="cls-19" points="218.64 316.29 275.03 283.52 274.98 299.83 218.6 332.6 218.64 316.29"/>
    <polygon class="cls-19" points="195.88 273.86 252.27 241.1 252.22 257.4 195.84 290.16 195.88 273.86"/>
    <polygon class="cls-16" points="181.7 265.67 238.08 232.91 252.27 241.1 195.88 273.86 181.7 265.67"/>
    <path class="cls-31" d="m193.1,246.63c19.59,11.31,35.42,38.73,35.36,61.24l-.53,187.48-79.45-45.87.65-228.24,43.98,25.39Zm-34.54,93.55l-.05,16.31,14.19,8.19.05-16.31-14.19-8.19m45.89-32.08l-.05,16.31,14.19,8.19.05-16.31-14.19-8.19m-46.01,90.58l-.05,16.31,14.19,8.19.05-16.31-14.19-8.19m22.92-16.05l-.05,16.3,14.19,8.19.05-16.3-14.19-8.19m.08-29.25l-.05,16.31,14.19,8.19.05-16.31-14.19-8.19m22.72,71.69l-.05,16.31,14.19,8.19.05-16.31-14.19-8.19m-22.54-130.16l-.05,16.31,14.19,8.19.05-16.31-14.19-8.19m22.6,100.91l-.05,16.3,14.19,8.19.05-16.3-14.19-8.19m-22.9,16.07l-.05,16.31,14.19,8.19.05-16.31-14.19-8.19m36.91,66.93l.05-16.3-14.19-8.19-.05,16.3,14.19,8.19m-13.94-112.24l-.05,16.31,14.19,8.19.05-16.31-14.19-8.19m-45.54-84.87l-.05,16.31,14.19,8.19.05-16.31-14.19-8.19m36.99,50.65l-14.19-8.19-.05,16.3,14.19,8.19.05-16.3m22.84,13.19l-14.19-8.19-.05,16.3,14.19,8.19.05-16.3m-60.08,23.89l-.05,16.3,14.19,8.19.05-16.3-14.19-8.19m14.37-50.28l-14.19-8.19-.05,16.3,14.19,8.19.05-16.3m8.84-53.47l-.05,16.3,14.19,8.19.05-16.3-14.19-8.19m-9.18,186.75l.05-16.3-14.19-8.19-.05,16.3,14.19,8.19m22.87,13.2l.05-16.3-14.19-8.19-.05,16.3,14.19,8.19m-36.56-213.16l-.05,16.3,14.19,8.19.05-16.3-14.19-8.19"/>
    <polygon class="cls-4" points="172.56 436.12 172.51 452.42 158.33 444.23 158.37 427.93 172.56 436.12"/>
    <polygon class="cls-4" points="195.43 449.33 195.38 465.63 181.2 457.44 181.24 441.13 195.43 449.33"/>
    <polygon class="cls-4" points="172.62 406.87 172.58 423.18 158.39 414.99 158.44 398.68 172.62 406.87"/>
    <polygon class="cls-4" points="218.27 462.51 218.23 478.82 204.03 470.62 204.08 454.32 218.27 462.51"/>
    <polygon class="cls-4" points="195.5 420.07 195.45 436.38 181.27 428.19 181.31 411.88 195.5 420.07"/>
    <polygon class="cls-4" points="172.67 377.61 172.63 393.91 158.44 385.72 158.49 369.42 172.67 377.61"/>
    <polygon class="cls-4" points="218.34 433.26 218.29 449.57 204.1 441.38 204.15 425.07 218.34 433.26"/>
    <polygon class="cls-4" points="172.75 348.37 172.7 364.68 158.51 356.48 158.56 340.17 172.75 348.37"/>
    <polygon class="cls-4" points="218.4 404.01 218.35 420.32 204.16 412.12 204.21 395.82 218.4 404.01"/>
    <polygon class="cls-4" points="195.62 361.57 195.57 377.88 181.39 369.69 181.43 353.38 195.62 361.57"/>
    <polygon class="cls-4" points="172.86 319.15 172.81 335.45 158.63 327.26 158.67 310.95 172.86 319.15"/>
    <polygon class="cls-4" points="218.47 374.76 218.42 391.07 204.24 382.88 204.28 366.57 218.47 374.76"/>
    <polygon class="cls-4" points="195.73 332.35 195.68 348.65 181.5 340.46 181.54 324.16 195.73 332.35"/>
    <polygon class="cls-4" points="172.93 289.89 172.88 306.2 158.7 298.01 158.74 281.7 172.93 289.89"/>
    <polygon class="cls-4" points="218.57 345.53 218.52 361.84 204.33 353.65 204.38 337.34 218.57 345.53"/>
    <polygon class="cls-4" points="195.8 303.1 195.75 319.41 181.57 311.22 181.61 294.91 195.8 303.1"/>
    <polygon class="cls-4" points="173.01 260.66 172.97 276.96 158.78 268.77 158.83 252.47 173.01 260.66"/>
    <polygon class="cls-4" points="218.64 316.29 218.6 332.6 204.4 324.4 204.45 308.09 218.64 316.29"/>
    <polygon class="cls-4" points="195.88 273.86 195.84 290.16 181.65 281.97 181.7 265.67 195.88 273.86"/>
    <polygon class="cls-8" points="228.46 307.87 284.84 275.1 284.31 462.58 227.93 495.35 228.46 307.87"/>
    <polygon class="cls-32" points="149.12 221.23 205.51 188.47 249.48 213.86 193.1 246.63 149.12 221.23"/>
    <g class="cls-39">
      <g class="cls-36">
        <g class="cls-39">
          <path class="cls-31" d="m193.1,246.63l56.38-32.77c.5.29,1,.59,1.5.9l-56.38,32.77c-.5-.31-1-.61-1.5-.9"/>
          <path class="cls-30" d="m194.6,247.53l56.38-32.77c.6.37,1.19.76,1.78,1.16l-56.38,32.77c-.59-.4-1.18-.79-1.78-1.16"/>
          <path class="cls-34" d="m196.37,248.69l56.38-32.77c.56.38,1.11.77,1.66,1.18l-56.38,32.77c-.55-.41-1.1-.8-1.66-1.18"/>
          <path class="cls-32" d="m198.04,249.87l56.38-32.77c.54.4,1.08.81,1.61,1.23l-56.38,32.77c-.53-.42-1.07-.83-1.61-1.23"/>
          <path class="cls-21" d="m199.65,251.1l56.38-32.77c.52.41,1.04.84,1.56,1.28l-56.38,32.77c-.52-.44-1.03-.86-1.56-1.28"/>
          <path class="cls-26" d="m201.2,252.37l56.38-32.77c.51.43,1.02.88,1.53,1.33l-56.38,32.77c-.5-.45-1.01-.9-1.53-1.33"/>
          <path class="cls-24" d="m202.73,253.71l56.38-32.77c.5.45,1,.92,1.5,1.39l-56.38,32.77c-.49-.47-.99-.94-1.5-1.39"/>
          <path class="cls-25" d="m204.23,255.1l56.38-32.77c.5.48,1,.97,1.5,1.48l-56.38,32.77c-.49-.5-.99-.99-1.5-1.48"/>
          <path class="cls-23" d="m205.72,256.57l56.38-32.77c.5.51.99,1.02,1.48,1.55l-56.38,32.77c-.49-.52-.98-1.04-1.48-1.55"/>
          <path class="cls-12" d="m207.2,258.12l56.38-32.77c.51.54,1,1.1,1.5,1.66l-56.38,32.77c-.49-.56-.99-1.12-1.5-1.66"/>
          <path class="cls-11" d="m208.7,259.78l56.38-32.77c.51.59,1.02,1.18,1.51,1.78l-56.38,32.77c-.5-.6-1-1.2-1.51-1.78"/>
          <path class="cls-13" d="m210.21,261.57l56.38-32.77c.51.62,1.02,1.26,1.52,1.9l-56.38,32.77c-.5-.64-1-1.28-1.52-1.9"/>
          <path class="cls-10" d="m211.73,263.47l56.38-32.77c.55.71,1.09,1.43,1.62,2.16l-56.38,32.77c-.53-.73-1.07-1.45-1.62-2.16"/>
          <path class="cls-5" d="m213.35,265.63l56.38-32.77c.57.79,1.13,1.59,1.68,2.41l-56.38,32.77c-.55-.81-1.11-1.62-1.68-2.41"/>
          <path class="cls-6" d="m215.03,268.04l56.38-32.77c.62.92,1.22,1.85,1.8,2.79l-56.38,32.77c-.58-.94-1.18-1.87-1.8-2.79"/>
          <path class="cls-9" d="m216.82,270.82l56.38-32.77c.71,1.14,1.39,2.3,2.04,3.48l-56.38,32.77c-.65-1.17-1.33-2.33-2.04-3.48"/>
          <path class="cls-7" d="m218.86,274.3l56.38-32.77c.92,1.66,1.79,3.35,2.6,5.06l-56.38,32.77c-.81-1.71-1.67-3.4-2.6-5.06"/>
          <path class="cls-15" d="m221.46,279.36l56.38-32.77c1.97,4.18,3.58,8.48,4.76,12.77l-56.38,32.77c-1.18-4.29-2.79-8.59-4.76-12.77"/>
          <path class="cls-7" d="m226.22,292.14l56.38-32.77c.49,1.77.9,3.55,1.23,5.31l-56.38,32.77c-.33-1.76-.75-3.54-1.23-5.31"/>
          <path class="cls-9" d="m227.45,297.45l56.38-32.77c.22,1.16.4,2.32.55,3.47l-56.38,32.77c-.15-1.15-.33-2.31-.55-3.47"/>
          <path class="cls-6" d="m228,300.92l56.38-32.77c.12.94.22,1.87.29,2.8l-56.38,32.77c-.07-.93-.17-1.86-.29-2.8"/>
          <path class="cls-5" d="m228.3,303.72l56.38-32.77c.07.83.11,1.66.14,2.48l-56.38,32.77c-.03-.82-.07-1.65-.14-2.48"/>
          <path class="cls-10" d="m228.43,306.2l56.38-32.77c.02.56.03,1.11.02,1.67l-56.38,32.77c0-.55,0-1.11-.02-1.67"/>
        </g>
      </g>
    </g>
  </g>
  <text class="cls-38" transform="translate(397 302.55)"><tspan x="0" y="0">P &amp; D</tspan></text>
  <text class="cls-37" transform="translate(404.02 353.27)"><tspan x="0" y="0">ENGINEERING SO</tspan><tspan class="cls-35" x="287.73" y="0">L</tspan><tspan x="306.12" y="0">UTIONS L</tspan><tspan class="cls-2" x="464.17" y="0">L</tspan><tspan x="481.87" y="0">C</tspan></text>
</svg>