<svg id="visual" viewBox="0 0 900 600" width="900" height="600" xmlns="http://www.w3.org/2000/svg" xmlns:xlink="http://www.w3.org/1999/xlink" version="1.1"><path d="M0 97L13.7 98C27.3 99 54.7 101 82 96C109.3 91 136.7 79 163.8 69C191 59 218 51 245.2 54C272.3 57 299.7 71 327 75C354.3 79 381.7 73 409 73C436.3 73 463.7 79 491 85C518.3 91 545.7 97 573 97C600.3 97 627.7 91 654.8 89C682 87 709 89 736.2 81C763.3 73 790.7 55 818 55C845.3 55 872.7 73 886.3 82L900 91L900 0L886.3 0C872.7 0 845.3 0 818 0C790.7 0 763.3 0 736.2 0C709 0 682 0 654.8 0C627.7 0 600.3 0 573 0C545.7 0 518.3 0 491 0C463.7 0 436.3 0 409 0C381.7 0 354.3 0 327 0C299.7 0 272.3 0 245.2 0C218 0 191 0 163.8 0C136.7 0 109.3 0 82 0C54.7 0 27.3 0 13.7 0L0 0Z" fill="#a6c7d6"></path><path d="M0 181L13.7 176C27.3 171 54.7 161 82 158C109.3 155 136.7 159 163.8 155C191 151 218 139 245.2 145C272.3 151 299.7 175 327 184C354.3 193 381.7 187 409 183C436.3 179 463.7 177 491 185C518.3 193 545.7 211 573 213C600.3 215 627.7 201 654.8 188C682 175 709 163 736.2 158C763.3 153 790.7 155 818 158C845.3 161 872.7 165 886.3 167L900 169L900 89L886.3 80C872.7 71 845.3 53 818 53C790.7 53 763.3 71 736.2 79C709 87 682 85 654.8 87C627.7 89 600.3 95 573 95C545.7 95 518.3 89 491 83C463.7 77 436.3 71 409 71C381.7 71 354.3 77 327 73C299.7 69 272.3 55 245.2 52C218 49 191 57 163.8 67C136.7 77 109.3 89 82 94C54.7 99 27.3 97 13.7 96L0 95Z" fill="#92bbcd"></path><path d="M0 397L13.7 397C27.3 397 54.7 397 82 378C109.3 359 136.7 321 163.8 325C191 329 218 375 245.2 386C272.3 397 299.7 373 327 361C354.3 349 381.7 349 409 350C436.3 351 463.7 353 491 362C518.3 371 545.7 387 573 376C600.3 365 627.7 327 654.8 329C682 331 709 373 736.2 369C763.3 365 790.7 315 818 300C845.3 285 872.7 305 886.3 315L900 325L900 167L886.3 165C872.7 163 845.3 159 818 156C790.7 153 763.3 151 736.2 156C709 161 682 173 654.8 186C627.7 199 600.3 213 573 211C545.7 209 518.3 191 491 183C463.7 175 436.3 177 409 181C381.7 185 354.3 191 327 182C299.7 173 272.3 149 245.2 143C218 137 191 149 163.8 153C136.7 157 109.3 153 82 156C54.7 159 27.3 169 13.7 174L0 179Z" fill="#7dafc3"></path><path d="M0 487L13.7 487C27.3 487 54.7 487 82 494C109.3 501 136.7 515 163.8 520C191 525 218 521 245.2 515C272.3 509 299.7 501 327 496C354.3 491 381.7 489 409 491C436.3 493 463.7 499 491 509C518.3 519 545.7 533 573 532C600.3 531 627.7 515 654.8 514C682 513 709 527 736.2 527C763.3 527 790.7 513 818 505C845.3 497 872.7 495 886.3 494L900 493L900 323L886.3 313C872.7 303 845.3 283 818 298C790.7 313 763.3 363 736.2 367C709 371 682 329 654.8 327C627.7 325 600.3 363 573 374C545.7 385 518.3 369 491 360C463.7 351 436.3 349 409 348C381.7 347 354.3 347 327 359C299.7 371 272.3 395 245.2 384C218 373 191 327 163.8 323C136.7 319 109.3 357 82 376C54.7 395 27.3 395 13.7 395L0 395Z" fill="#6b98aa"></path><path d="M0 601L13.7 601C27.3 601 54.7 601 82 601C109.3 601 136.7 601 163.8 601C191 601 218 601 245.2 601C272.3 601 299.7 601 327 601C354.3 601 381.7 601 409 601C436.3 601 463.7 601 491 601C518.3 601 545.7 601 573 601C600.3 601 627.7 601 654.8 601C682 601 709 601 736.2 601C763.3 601 790.7 601 818 601C845.3 601 872.7 601 886.3 601L900 601L900 491L886.3 492C872.7 493 845.3 495 818 503C790.7 511 763.3 525 736.2 525C709 525 682 511 654.8 512C627.7 513 600.3 529 573 530C545.7 531 518.3 517 491 507C463.7 497 436.3 491 409 489C381.7 487 354.3 489 327 494C299.7 499 272.3 507 245.2 513C218 519 191 523 163.8 518C136.7 513 109.3 499 82 492C54.7 485 27.3 485 13.7 485L0 485Z" fill="#598191"></path></svg>