<svg id="visual" viewBox="0 0 900 600" width="900" height="600" xmlns="http://www.w3.org/2000/svg" xmlns:xlink="http://www.w3.org/1999/xlink" version="1.1"><path d="M0 91L13.7 91C27.3 91 54.7 91 82 86C109.3 81 136.7 71 163.8 67C191 63 218 65 245.2 62C272.3 59 299.7 51 327 54C354.3 57 381.7 71 409 80C436.3 89 463.7 93 491 94C518.3 95 545.7 93 573 92C600.3 91 627.7 91 654.8 90C682 89 709 87 736.2 82C763.3 77 790.7 69 818 66C845.3 63 872.7 65 886.3 66L900 67L900 0L886.3 0C872.7 0 845.3 0 818 0C790.7 0 763.3 0 736.2 0C709 0 682 0 654.8 0C627.7 0 600.3 0 573 0C545.7 0 518.3 0 491 0C463.7 0 436.3 0 409 0C381.7 0 354.3 0 327 0C299.7 0 272.3 0 245.2 0C218 0 191 0 163.8 0C136.7 0 109.3 0 82 0C54.7 0 27.3 0 13.7 0L0 0Z" fill="#2d5c6e"></path><path d="M0 145L13.7 153C27.3 161 54.7 177 82 183C109.3 189 136.7 185 163.8 185C191 185 218 189 245.2 180C272.3 171 299.7 149 327 143C354.3 137 381.7 147 409 166C436.3 185 463.7 213 491 215C518.3 217 545.7 193 573 182C600.3 171 627.7 173 654.8 167C682 161 709 147 736.2 139C763.3 131 790.7 129 818 136C845.3 143 872.7 159 886.3 167L900 175L900 65L886.3 64C872.7 63 845.3 61 818 64C790.7 67 763.3 75 736.2 80C709 85 682 87 654.8 88C627.7 89 600.3 89 573 90C545.7 91 518.3 93 491 92C463.7 91 436.3 87 409 78C381.7 69 354.3 55 327 52C299.7 49 272.3 57 245.2 60C218 63 191 61 163.8 65C136.7 69 109.3 79 82 84C54.7 89 27.3 89 13.7 89L0 89Z" fill="#13313d"></path><path d="M0 247L13.7 252C27.3 257 54.7 267 82 271C109.3 275 136.7 273 163.8 288C191 303 218 335 245.2 336C272.3 337 299.7 307 327 312C354.3 317 381.7 357 409 378C436.3 399 463.7 401 491 391C518.3 381 545.7 359 573 342C600.3 325 627.7 313 654.8 295C682 277 709 253 736.2 255C763.3 257 790.7 285 818 315C845.3 345 872.7 377 886.3 393L900 409L900 173L886.3 165C872.7 157 845.3 141 818 134C790.7 127 763.3 129 736.2 137C709 145 682 159 654.8 165C627.7 171 600.3 169 573 180C545.7 191 518.3 215 491 213C463.7 211 436.3 183 409 164C381.7 145 354.3 135 327 141C299.7 147 272.3 169 245.2 178C218 187 191 183 163.8 183C136.7 183 109.3 187 82 181C54.7 175 27.3 159 13.7 151L0 143Z" fill="#112730"></path><path d="M0 553L13.7 542C27.3 531 54.7 509 82 502C109.3 495 136.7 503 163.8 515C191 527 218 543 245.2 550C272.3 557 299.7 555 327 544C354.3 533 381.7 513 409 507C436.3 501 463.7 509 491 509C518.3 509 545.7 501 573 501C600.3 501 627.7 509 654.8 507C682 505 709 493 736.2 492C763.3 491 790.7 501 818 510C845.3 519 872.7 527 886.3 531L900 535L900 407L886.3 391C872.7 375 845.3 343 818 313C790.7 283 763.3 255 736.2 253C709 251 682 275 654.8 293C627.7 311 600.3 323 573 340C545.7 357 518.3 379 491 389C463.7 399 436.3 397 409 376C381.7 355 354.3 315 327 310C299.7 305 272.3 335 245.2 334C218 333 191 301 163.8 286C136.7 271 109.3 273 82 269C54.7 265 27.3 255 13.7 250L0 245Z" fill="#13313d"></path><path d="M0 601L13.7 601C27.3 601 54.7 601 82 601C109.3 601 136.7 601 163.8 601C191 601 218 601 245.2 601C272.3 601 299.7 601 327 601C354.3 601 381.7 601 409 601C436.3 601 463.7 601 491 601C518.3 601 545.7 601 573 601C600.3 601 627.7 601 654.8 601C682 601 709 601 736.2 601C763.3 601 790.7 601 818 601C845.3 601 872.7 601 886.3 601L900 601L900 533L886.3 529C872.7 525 845.3 517 818 508C790.7 499 763.3 489 736.2 490C709 491 682 503 654.8 505C627.7 507 600.3 499 573 499C545.7 499 518.3 507 491 507C463.7 507 436.3 499 409 505C381.7 511 354.3 531 327 542C299.7 553 272.3 555 245.2 548C218 541 191 525 163.8 513C136.7 501 109.3 493 82 500C54.7 507 27.3 529 13.7 540L0 551Z" fill="#2d5c6e"></path></svg>