<svg id="visual" viewBox="0 0 900 600" width="900" height="600" xmlns="http://www.w3.org/2000/svg" xmlns:xlink="http://www.w3.org/1999/xlink" version="1.1"><path d="M0 121L82 121L82 121L164 121L164 79L245 79L245 85L327 85L327 103L409 103L409 97L491 97L491 121L573 121L573 91L655 91L655 67L736 67L736 85L818 85L818 103L900 103L900 67L900 0L900 0L818 0L818 0L736 0L736 0L655 0L655 0L573 0L573 0L491 0L491 0L409 0L409 0L327 0L327 0L245 0L245 0L164 0L164 0L82 0L82 0L0 0Z" fill="#ffffff"></path><path d="M0 283L82 283L82 271L164 271L164 331L245 331L245 199L327 199L327 265L409 265L409 271L491 271L491 259L573 259L573 211L655 211L655 175L736 175L736 343L818 343L818 193L900 193L900 301L900 65L900 101L818 101L818 83L736 83L736 65L655 65L655 89L573 89L573 119L491 119L491 95L409 95L409 101L327 101L327 83L245 83L245 77L164 77L164 119L82 119L82 119L0 119Z" fill="#dfeaf0"></path><path d="M0 331L82 331L82 349L164 349L164 445L245 445L245 349L327 349L327 427L409 427L409 415L491 415L491 403L573 403L573 295L655 295L655 301L736 301L736 439L818 439L818 295L900 295L900 397L900 299L900 191L818 191L818 341L736 341L736 173L655 173L655 209L573 209L573 257L491 257L491 269L409 269L409 263L327 263L327 197L245 197L245 329L164 329L164 269L82 269L82 281L0 281Z" fill="#bfd6e1"></path><path d="M0 505L82 505L82 535L164 535L164 553L245 553L245 535L327 535L327 553L409 553L409 505L491 505L491 541L573 541L573 535L655 535L655 559L736 559L736 535L818 535L818 523L900 523L900 499L900 395L900 293L818 293L818 437L736 437L736 299L655 299L655 293L573 293L573 401L491 401L491 413L409 413L409 425L327 425L327 347L245 347L245 443L164 443L164 347L82 347L82 329L0 329Z" fill="#9fc2d2"></path><path d="M0 601L82 601L82 601L164 601L164 601L245 601L245 601L327 601L327 601L409 601L409 601L491 601L491 601L573 601L573 601L655 601L655 601L736 601L736 601L818 601L818 601L900 601L900 601L900 497L900 521L818 521L818 533L736 533L736 557L655 557L655 533L573 533L573 539L491 539L491 503L409 503L409 551L327 551L327 533L245 533L245 551L164 551L164 533L82 533L82 503L0 503Z" fill="#7dafc3"></path></svg>